<svg width="51" height="50" viewBox="0 0 51 50" fill="none" xmlns="http://www.w3.org/2000/svg">
<ellipse cx="25" cy="24.9336" rx="25" ry="24.9336" transform="matrix(1 -0.000231959 0.000354157 1 0.0166016 0.0273438)" fill="#F67C36"/>
<path d="M11.6996 15.2933C11.6524 14.1222 12.5915 13.9877 13.0669 14.0668L30.6711 14.4556C31.1179 14.4642 31.7374 14.7548 31.7153 15.7541L31.6178 20.1586L36.0123 20.2556L36.0981 20.2575C36.4642 20.2656 36.7966 20.4731 36.9646 20.7986L40.2757 27.2138C40.4289 27.5107 40.5054 27.8412 40.498 28.1753L40.4205 31.6766C40.4006 31.9709 40.165 32.5552 39.3812 32.5378L38.8014 32.525L31.3478 32.3604L22.347 32.1617L12.6712 31.948C11.6289 31.925 11.3782 31.2292 11.3585 30.708C11.4918 26.0578 11.7467 16.4645 11.6996 15.2933Z" fill="#FCF8F2"/>
<ellipse cx="3.07358" cy="3.42492" rx="3.07358" ry="3.42492" transform="matrix(0.999757 0.0220688 -0.0221308 0.999755 16.4385 28.6016)" fill="#FCF8F2"/>
<ellipse cx="1.63468" cy="1.82154" rx="1.63468" ry="1.82154" transform="matrix(0.999757 0.0220688 -0.0221308 0.999755 17.8369 30.2383)" fill="#FCF8F2"/>
<ellipse cx="3.07358" cy="3.42492" rx="3.07358" ry="3.42492" transform="matrix(0.999757 0.0220688 -0.0221308 0.999755 32.7783 28.9648)" fill="#FCF8F2"/>
<ellipse cx="1.63468" cy="1.82154" rx="1.63468" ry="1.82154" transform="matrix(0.999757 0.0220688 -0.0221308 0.999755 34.1768 30.5938)" fill="#FCF8F2"/>
</svg>
