<svg width="52" height="52" viewBox="0 0 52 52" fill="none" xmlns="http://www.w3.org/2000/svg">
<circle cx="25.5607" cy="25.5592" r="25" transform="rotate(-1.3 25.5607 25.5592)" fill="#F67C36"/>
<path d="M9.2825 23.2334C16.722 16.7516 23.0435 21.9626 25.4547 26.0171C25.6924 26.4166 25.5808 26.9269 25.2118 27.2097C17.4197 33.1794 11.3104 28.2115 9.07899 24.3766C8.8592 23.9989 8.95299 23.5205 9.2825 23.2334Z" fill="#FCF8F2" stroke="#FCF8F2" stroke-width="3"/>
<path d="M41.6866 22.4718C33.9851 16.3416 28.4588 21.8539 26.296 26.0165C26.0816 26.4291 26.2163 26.9336 26.5976 27.1997C34.6255 32.802 39.9522 27.5423 41.9465 23.6072C42.144 23.2174 42.0286 22.7439 41.6866 22.4718Z" fill="#FCF8F2" stroke="#FCF8F2" stroke-width="3"/>
<path d="M26.1905 10.6045C29.5079 13.356 31.2658 17.7193 30.9357 19.977L26.5902 25.8045L20.6425 20.2136C20.094 14.7553 23.2643 12.0231 24.9156 10.6376C25.2823 10.3299 25.8221 10.2989 26.1905 10.6045Z" fill="#FCF8F2" stroke="#FCF8F2" stroke-width="3"/>
<path d="M26 26.3359L26.3681 42.3502" stroke="#FCF8F2" stroke-width="3"/>
</svg>
