<svg width="52" height="52" viewBox="0 0 52 52" fill="none" xmlns="http://www.w3.org/2000/svg">
<circle cx="25.5615" cy="25.5607" r="25" transform="rotate(1.3 25.5615 25.5607)" fill="#F67C36"/>
<path d="M23.9686 11.3765C24.6089 9.5479 27.2151 9.60705 27.7718 11.4628L29.761 18.0932C30.01 18.9231 30.7651 19.4983 31.6313 19.518L38.5519 19.675C40.4889 19.719 41.238 22.2158 39.6451 23.3188L33.9539 27.2596C33.2415 27.7528 32.9278 28.6487 33.1768 29.4786L35.166 36.109C35.7228 37.9647 33.5796 39.4488 32.0384 38.2747L26.5318 34.0798C25.8426 33.5547 24.8936 33.5332 24.1813 34.0264L18.4901 37.9672C16.8972 39.0702 14.8236 37.4905 15.4639 35.6619L17.7519 29.1285C18.0382 28.3108 17.7655 27.4016 17.0762 26.8766L11.5697 22.6817C10.0285 21.5076 10.8901 19.0473 12.827 19.0912L19.7476 19.2483C20.6139 19.2679 21.3942 18.7276 21.6806 17.9098L23.9686 11.3765Z" fill="#FCF8F2"/>
</svg>
