<svg width="195" height="20" viewBox="0 0 195 20" fill="none" xmlns="http://www.w3.org/2000/svg">
<path d="M-0.000390658 15.3984V-0.00156388H11.2856L11.2636 3.45244H3.32161L4.28961 2.48444V15.3984H-0.000390658ZM20.054 15.3984V13.1764L19.768 12.6264V8.53444C19.768 7.87444 19.5626 7.36844 19.152 7.01644C18.756 6.64977 18.118 6.46644 17.238 6.46644C16.666 6.46644 16.0867 6.56177 15.5 6.75244C14.9133 6.92844 14.4147 7.17777 14.004 7.50044L12.596 4.66244C13.2707 4.22244 14.0773 3.8851 15.016 3.65044C15.9693 3.4011 16.9153 3.27644 17.854 3.27644C19.79 3.27644 21.286 3.72377 22.342 4.61844C23.4127 5.49844 23.948 6.88444 23.948 8.77644V15.3984H20.054ZM16.534 15.5964C15.5807 15.5964 14.774 15.4351 14.114 15.1124C13.454 14.7898 12.948 14.3498 12.596 13.7924C12.2587 13.2351 12.09 12.6118 12.09 11.9224C12.09 11.1891 12.2733 10.5584 12.64 10.0304C13.0213 9.48777 13.6007 9.0771 14.378 8.79844C15.1553 8.5051 16.16 8.35844 17.392 8.35844H20.208V10.5364H17.964C17.2893 10.5364 16.8127 10.6464 16.534 10.8664C16.27 11.0864 16.138 11.3798 16.138 11.7464C16.138 12.1131 16.2773 12.4064 16.556 12.6264C16.8347 12.8464 17.216 12.9564 17.7 12.9564C18.1547 12.9564 18.5653 12.8464 18.932 12.6264C19.3133 12.3918 19.592 12.0398 19.768 11.5704L20.34 13.1104C20.12 13.9318 19.6873 14.5551 19.042 14.9804C18.4113 15.3911 17.5753 15.5964 16.534 15.5964ZM33.9647 15.5964C32.9527 15.5964 32.0874 15.3764 31.3687 14.9364C30.65 14.4818 30.1 13.8071 29.7187 12.9124C29.352 12.0031 29.1687 10.8444 29.1687 9.43644C29.1687 8.01377 29.3447 6.8551 29.6967 5.96044C30.0487 5.0511 30.5767 4.37644 31.2807 3.93644C31.9994 3.49644 32.894 3.27644 33.9647 3.27644C35.05 3.27644 36.0327 3.5331 36.9127 4.04644C37.8074 4.5451 38.5114 5.25644 39.0247 6.18044C39.5527 7.08977 39.8167 8.1751 39.8167 9.43644C39.8167 10.6978 39.5527 11.7904 39.0247 12.7144C38.5114 13.6384 37.8074 14.3498 36.9127 14.8484C36.0327 15.3471 35.05 15.5964 33.9647 15.5964ZM26.4627 19.6664V3.47444H30.4447V5.49844L30.4227 9.43644L30.6427 13.3964V19.6664H26.4627ZM33.0847 12.2744C33.554 12.2744 33.972 12.1644 34.3387 11.9444C34.72 11.7244 35.0207 11.4018 35.2407 10.9764C35.4754 10.5511 35.5927 10.0378 35.5927 9.43644C35.5927 8.8351 35.4754 8.32177 35.2407 7.89644C35.0207 7.4711 34.72 7.14844 34.3387 6.92844C33.972 6.70844 33.554 6.59844 33.0847 6.59844C32.6154 6.59844 32.19 6.70844 31.8087 6.92844C31.442 7.14844 31.1414 7.4711 30.9067 7.89644C30.6867 8.32177 30.5767 8.8351 30.5767 9.43644C30.5767 10.0378 30.6867 10.5511 30.9067 10.9764C31.1414 11.4018 31.442 11.7244 31.8087 11.9444C32.19 12.1644 32.6154 12.2744 33.0847 12.2744ZM41.824 15.3984V3.47444H46.224L50.382 11.2624H48.644L53.198 3.47444H57.136L57.158 15.3984H53.396V7.61044L54.034 8.05044L50.338 14.3424H48.556L44.86 7.74244L45.586 7.54444V15.3984H41.824ZM65.8523 15.5964C64.547 15.5964 63.3883 15.3324 62.3763 14.8044C61.3643 14.2764 60.565 13.5504 59.9783 12.6264C59.4063 11.6878 59.1203 10.6171 59.1203 9.41444C59.1203 8.21177 59.4063 7.14844 59.9783 6.22444C60.565 5.30044 61.3643 4.58177 62.3763 4.06844C63.3883 3.54044 64.547 3.27644 65.8523 3.27644C67.1576 3.27644 68.3163 3.54044 69.3283 4.06844C70.355 4.58177 71.1543 5.30044 71.7263 6.22444C72.2983 7.14844 72.5843 8.21177 72.5843 9.41444C72.5843 10.6171 72.2983 11.6878 71.7263 12.6264C71.1543 13.5504 70.355 14.2764 69.3283 14.8044C68.3163 15.3324 67.1576 15.5964 65.8523 15.5964ZM65.8523 12.2744C66.3363 12.2744 66.7616 12.1644 67.1283 11.9444C67.5096 11.7244 67.8103 11.4018 68.0303 10.9764C68.2503 10.5364 68.3603 10.0158 68.3603 9.41444C68.3603 8.8131 68.2503 8.3071 68.0303 7.89644C67.8103 7.4711 67.5096 7.14844 67.1283 6.92844C66.7616 6.70844 66.3363 6.59844 65.8523 6.59844C65.383 6.59844 64.9576 6.70844 64.5763 6.92844C64.2096 7.14844 63.909 7.4711 63.6743 7.89644C63.4543 8.3071 63.3443 8.8131 63.3443 9.41444C63.3443 10.0158 63.4543 10.5364 63.6743 10.9764C63.909 11.4018 64.2096 11.7244 64.5763 11.9444C64.9576 12.1644 65.383 12.2744 65.8523 12.2744ZM74.5447 15.3984V3.47444H78.7027V7.89644H82.9927V3.47444H87.1727V15.3984H82.9927V11.2184H78.7027V15.3984H74.5447ZM89.992 15.3984V3.47444H94.15V9.72244L99.144 3.47444H102.994V15.3984H98.814V9.12844L93.864 15.3984H89.992ZM113.306 15.3984V11.5264L113.856 12.1644H110.82C109.046 12.1644 107.645 11.8051 106.618 11.0864C105.592 10.3531 105.078 9.31177 105.078 7.96244C105.078 6.5251 105.614 5.41777 106.684 4.64044C107.755 3.8631 109.2 3.47444 111.018 3.47444H117.024V15.3984H113.306ZM104.88 15.3984L108.026 10.8664H112.25L109.302 15.3984H104.88ZM113.306 10.2724V5.74044L113.856 6.77444H111.106C110.549 6.77444 110.116 6.88444 109.808 7.10444C109.5 7.30977 109.346 7.6471 109.346 8.11644C109.346 9.02577 109.926 9.48044 111.084 9.48044H113.856L113.306 10.2724ZM126.478 15.3984V-0.00156388H133.958C135.806 -0.00156388 137.236 0.350436 138.248 1.05444C139.275 1.74377 139.788 2.72644 139.788 4.00244C139.788 5.2491 139.311 6.23177 138.358 6.95044C137.405 7.65444 136.129 8.00644 134.53 8.00644L134.97 6.97244C136.701 6.97244 138.05 7.3171 139.018 8.00644C140.001 8.6811 140.492 9.67844 140.492 10.9984C140.492 12.3478 139.964 13.4184 138.908 14.2104C137.867 15.0024 136.356 15.3984 134.376 15.3984H126.478ZM130.768 12.2744H134.2C134.831 12.2744 135.3 12.1424 135.608 11.8784C135.931 11.5998 136.092 11.1964 136.092 10.6684C136.092 10.1404 135.931 9.75177 135.608 9.50244C135.3 9.23844 134.831 9.10644 134.2 9.10644H130.768V12.2744ZM130.768 6.15844H133.54C134.156 6.15844 134.618 6.03377 134.926 5.78444C135.234 5.52044 135.388 5.1391 135.388 4.64044C135.388 4.14177 135.234 3.76777 134.926 3.51844C134.618 3.25444 134.156 3.12244 133.54 3.12244H130.768V6.15844ZM150.967 15.3984L147.337 9.83244L150.703 7.85244L155.895 15.3984H150.967ZM142.607 15.3984V3.47444H146.787V15.3984H142.607ZM145.555 11.1524V7.87444H149.867V11.1524H145.555ZM151.121 9.89844L147.205 9.50244L151.209 3.47444H155.631L151.121 9.89844ZM158.815 19.8644C158.184 19.8644 157.546 19.7618 156.901 19.5564C156.27 19.3658 155.757 19.1091 155.361 18.7864L156.813 15.8604C157.062 16.0804 157.348 16.2491 157.671 16.3664C158.008 16.4984 158.338 16.5644 158.661 16.5644C159.116 16.5644 159.475 16.4618 159.739 16.2564C160.003 16.0511 160.23 15.7284 160.421 15.2884L160.971 13.9024L161.301 13.4844L165.349 3.47444H169.331L164.183 15.8824C163.772 16.9091 163.296 17.7084 162.753 18.2804C162.225 18.8671 161.631 19.2778 160.971 19.5124C160.326 19.7471 159.607 19.8644 158.815 19.8644ZM160.443 15.9044L155.185 3.47444H159.475L163.347 13.1104L160.443 15.9044ZM176.349 15.5964C175.029 15.5964 173.848 15.3324 172.807 14.8044C171.78 14.2764 170.974 13.5504 170.387 12.6264C169.8 11.6878 169.507 10.6171 169.507 9.41444C169.507 8.21177 169.8 7.14844 170.387 6.22444C170.974 5.30044 171.78 4.58177 172.807 4.06844C173.848 3.54044 175.029 3.27644 176.349 3.27644C177.698 3.27644 178.864 3.56244 179.847 4.13444C180.83 4.70644 181.526 5.5131 181.937 6.55444L178.703 8.20444C178.424 7.6471 178.08 7.24377 177.669 6.99444C177.258 6.73044 176.811 6.59844 176.327 6.59844C175.843 6.59844 175.403 6.70844 175.007 6.92844C174.611 7.14844 174.296 7.4711 174.061 7.89644C173.841 8.3071 173.731 8.8131 173.731 9.41444C173.731 10.0304 173.841 10.5511 174.061 10.9764C174.296 11.4018 174.611 11.7244 175.007 11.9444C175.403 12.1644 175.843 12.2744 176.327 12.2744C176.811 12.2744 177.258 12.1498 177.669 11.9004C178.08 11.6364 178.424 11.2258 178.703 10.6684L181.937 12.3184C181.526 13.3598 180.83 14.1664 179.847 14.7384C178.864 15.3104 177.698 15.5964 176.349 15.5964ZM190.747 15.3984V13.1764L190.461 12.6264V8.53444C190.461 7.87444 190.256 7.36844 189.845 7.01644C189.449 6.64977 188.811 6.46644 187.931 6.46644C187.359 6.46644 186.78 6.56177 186.193 6.75244C185.607 6.92844 185.108 7.17777 184.697 7.50044L183.289 4.66244C183.964 4.22244 184.771 3.8851 185.709 3.65044C186.663 3.4011 187.609 3.27644 188.547 3.27644C190.483 3.27644 191.979 3.72377 193.035 4.61844C194.106 5.49844 194.641 6.88444 194.641 8.77644V15.3984H190.747ZM187.227 15.5964C186.274 15.5964 185.467 15.4351 184.807 15.1124C184.147 14.7898 183.641 14.3498 183.289 13.7924C182.952 13.2351 182.783 12.6118 182.783 11.9224C182.783 11.1891 182.967 10.5584 183.333 10.0304C183.715 9.48777 184.294 9.0771 185.071 8.79844C185.849 8.5051 186.853 8.35844 188.085 8.35844H190.901V10.5364H188.657C187.983 10.5364 187.506 10.6464 187.227 10.8664C186.963 11.0864 186.831 11.3798 186.831 11.7464C186.831 12.1131 186.971 12.4064 187.249 12.6264C187.528 12.8464 187.909 12.9564 188.393 12.9564C188.848 12.9564 189.259 12.8464 189.625 12.6264C190.007 12.3918 190.285 12.0398 190.461 11.5704L191.033 13.1104C190.813 13.9318 190.381 14.5551 189.735 14.9804C189.105 15.3911 188.269 15.5964 187.227 15.5964Z" fill="white"/>
</svg>
