<svg width="120" height="120" viewBox="0 0 120 120" fill="none" xmlns="http://www.w3.org/2000/svg">
<g clip-path="url(#clip0_1201_1925)">
<mask id="mask0_1201_1925" style="mask-type:luminance" maskUnits="userSpaceOnUse" x="0" y="0" width="120" height="120">
<path d="M115.2 2.01171e-09L4.8 0C2.14903 0 2.05795e-09 2.14903 2.01165e-09 4.8L0 115.2C0 117.851 2.14903 120 4.8 120L115.2 120C117.851 120 120 117.851 120 115.2L120 4.8C120 2.14903 117.851 2.058e-09 115.2 2.01171e-09Z" fill="white"/>
</mask>
<g mask="url(#mask0_1201_1925)">
<path d="M120 2.09553e-09L2.09548e-09 0L0 120L120 120L120 2.09553e-09Z" fill="white"/>
<g clip-path="url(#clip1_1201_1925)">
<path d="M48.3906 17.5742L45.214 17.5742L45.214 15.4777C45.214 14.8812 45.6976 14.3976 46.2941 14.3976L48.3906 14.3976L48.3906 17.5742Z" fill="black"/>
<path d="M48.293 17.5742L48.293 14.3976L50.3895 14.3976C50.986 14.3976 51.4696 14.8812 51.4696 15.4777L51.4696 17.5742L48.293 17.5742Z" fill="black"/>
<path d="M60.6172 17.5742L60.6172 15.4777C60.6172 14.8812 61.1007 14.3976 61.6972 14.3976L62.7137 14.3976C63.3102 14.3976 63.7938 14.8812 63.7938 15.4777L63.7938 17.5742L60.6172 17.5742Z" fill="black"/>
<path d="M73.0391 17.5742L70.9425 17.5742C70.346 17.5742 69.8625 17.0907 69.8625 16.4942L69.8625 15.4777C69.8625 14.8812 70.346 14.3976 70.9425 14.3976L73.0391 14.3976L73.0391 17.5742Z" fill="black"/>
<path d="M76.118 14.3984L72.9414 14.3984L72.9414 17.575L76.118 17.575L76.118 14.3984Z" fill="black"/>
<path d="M76.0234 17.5742L76.0234 14.3976L78.12 14.3976C78.7165 14.3976 79.2 14.8812 79.2 15.4777L79.2 17.5742L76.0234 17.5742Z" fill="black"/>
<path d="M48.3875 17.4805L45.2109 17.4805L45.2109 20.6571L48.3875 20.6571L48.3875 17.4805Z" fill="black"/>
<path d="M54.457 18.389L54.457 19.7517C54.457 20.2536 54.8636 20.6571 55.3655 20.6571L56.7283 20.6571C57.2334 20.6571 57.6368 20.2505 57.6368 19.7486L57.6368 18.389C57.6336 17.8839 57.227 17.4805 56.7251 17.4805L55.3655 17.4805C54.8636 17.4805 54.457 17.8871 54.457 18.389Z" fill="black"/>
<path d="M63.7969 17.4805L63.7969 19.577C63.7969 20.1735 63.3133 20.6571 62.7168 20.6571L61.7003 20.6571C61.1038 20.6571 60.6203 20.1735 60.6203 19.577L60.6203 17.4805L63.7969 17.4805Z" fill="black"/>
<path d="M66.7813 18.389L66.7813 19.7517C66.7813 20.2536 67.1879 20.6571 67.6898 20.6571L69.0525 20.6571C69.5576 20.6571 69.961 20.2505 69.961 19.7486L69.961 18.389C69.9578 17.8839 69.5512 17.4805 69.0493 17.4805L67.6898 17.4805C67.1879 17.4805 66.7813 17.8871 66.7813 18.389Z" fill="black"/>
<path d="M76.118 17.4805L72.9414 17.4805L72.9414 20.6571L76.118 20.6571L76.118 17.4805Z" fill="black"/>
<path d="M79.2 17.4805L76.0234 17.4805L76.0234 20.6571L79.2 20.6571L79.2 17.4805Z" fill="black"/>
<path d="M39.0469 23.7344L39.0469 21.6378C39.0469 21.0413 39.5304 20.5578 40.1269 20.5578L41.1434 20.5578C41.7399 20.5578 42.2235 21.0413 42.2235 21.6378L42.2235 23.7344L39.0469 23.7344Z" fill="black"/>
<path d="M48.3906 20.5625L48.3906 23.7391L46.2941 23.7391C45.6976 23.7391 45.214 23.2555 45.214 22.6591L45.214 20.5625L48.3906 20.5625Z" fill="black"/>
<path d="M51.4696 20.5625L48.293 20.5625L48.293 23.7391L51.4696 23.7391L51.4696 20.5625Z" fill="black"/>
<path d="M51.375 23.7344L51.375 20.5578L53.4716 20.5578C54.068 20.5578 54.5516 21.0413 54.5516 21.6378L54.5516 23.7344L51.375 23.7344Z" fill="black"/>
<path d="M57.5352 23.7344L57.5352 21.6378C57.5352 21.0413 58.0187 20.5578 58.6152 20.5578L59.6317 20.5578C60.2282 20.5578 60.7117 21.0413 60.7117 21.6378L60.7117 23.7344L57.5352 23.7344Z" fill="black"/>
<path d="M73.0391 23.7344L70.9425 23.7344C70.346 23.7344 69.8625 23.2508 69.8625 22.6543L69.8625 21.6378C69.8625 21.0413 70.346 20.5578 70.9425 20.5578L73.0391 20.5578L73.0391 23.7344Z" fill="black"/>
<path d="M76.118 20.5625L72.9414 20.5625L72.9414 23.7391L76.118 23.7391L76.118 20.5625Z" fill="black"/>
<path d="M79.2 20.5625L76.0234 20.5625L76.0234 23.7391L79.2 23.7391L79.2 20.5625Z" fill="black"/>
<path d="M42.2266 23.6406L42.2266 26.8172L40.13 26.8172C39.5335 26.8172 39.05 26.3337 39.05 25.7372L39.05 23.6406L42.2266 23.6406Z" fill="black"/>
<path d="M42.1289 26.8164L42.1289 23.6398L44.2255 23.6398C44.8219 23.6398 45.3055 24.1234 45.3055 24.7199L45.3055 26.8164L42.1289 26.8164Z" fill="black"/>
<path d="M54.5508 23.6406L54.5508 25.7372C54.5508 26.3337 54.0672 26.8172 53.4707 26.8172L52.4542 26.8172C51.8577 26.8172 51.3742 26.3337 51.3742 25.7372L51.3742 23.6406L54.5508 23.6406Z" fill="black"/>
<path d="M56.6641 26.7569L56.6641 26.8204L57.6329 26.8204L57.6329 25.8516L57.5694 25.8516C57.5694 26.3535 57.1628 26.7569 56.6641 26.7569Z" fill="black"/>
<path d="M60.7117 23.6406L57.5352 23.6406L57.5352 26.8172L60.7117 26.8172L60.7117 23.6406Z" fill="black"/>
<path d="M66.8789 26.8164L64.7824 26.8164C64.1859 26.8164 63.7023 26.3329 63.7023 25.7364L63.7023 24.7199C63.7023 24.1234 64.1859 23.6398 64.7824 23.6398L66.8789 23.6398L66.8789 26.8164Z" fill="black"/>
<path d="M66.7813 26.8164L66.7813 23.6398L68.8778 23.6398C69.4743 23.6398 69.9578 24.1234 69.9578 24.7199L69.9578 26.8164L66.7813 26.8164Z" fill="black"/>
<path d="M79.2 23.6406L76.0234 23.6406L76.0234 26.8172L79.2 26.8172L79.2 23.6406Z" fill="black"/>
<path d="M45.3055 26.7227L42.1289 26.7227L42.1289 29.8992L45.3055 29.8992L45.3055 26.7227Z" fill="black"/>
<path d="M57.6328 29.8984L55.5363 29.8984C54.9398 29.8984 54.4562 29.4149 54.4562 28.8184L54.4562 27.8019C54.4562 27.2054 54.9398 26.7218 55.5363 26.7218L57.6328 26.7218L57.6328 29.8984Z" fill="black"/>
<path d="M60.7117 26.7227L57.5352 26.7227L57.5352 29.8992L60.7117 29.8992L60.7117 26.7227Z" fill="black"/>
<path d="M60.6172 29.8984L60.6172 26.7218L62.7137 26.7218C63.3102 26.7218 63.7938 27.2054 63.7938 27.8019L63.7938 29.8984L60.6172 29.8984Z" fill="black"/>
<path d="M73.0391 29.8984L70.9425 29.8984C70.346 29.8984 69.8625 29.4149 69.8625 28.8184L69.8625 27.8019C69.8625 27.2054 70.346 26.7218 70.9425 26.7218L73.0391 26.7218L73.0391 29.8984Z" fill="black"/>
<path d="M76.118 26.7227L72.9414 26.7227L72.9414 29.8992L76.118 29.8992L76.118 26.7227Z" fill="black"/>
<path d="M79.2 26.7227L76.0234 26.7227L76.0234 29.8992L79.2 29.8992L79.2 26.7227Z" fill="black"/>
<path d="M45.3086 29.8047L45.3086 32.9813L43.212 32.9813C42.6156 32.9813 42.132 32.4977 42.132 31.9012L42.132 29.8047L45.3086 29.8047Z" fill="black"/>
<path d="M48.3875 29.8047L45.2109 29.8047L45.2109 32.9813L48.3875 32.9813L48.3875 29.8047Z" fill="black"/>
<path d="M48.293 32.9805L48.293 29.8039L50.3895 29.8039C50.986 29.8039 51.4696 30.2874 51.4696 30.8839L51.4696 32.9805L48.293 32.9805Z" fill="black"/>
<path d="M63.6992 32.9805L63.6992 30.8839C63.6992 30.2874 64.1828 29.8039 64.7793 29.8039L65.7958 29.8039C66.3923 29.8039 66.8758 30.2874 66.8758 30.8839L66.8758 32.9805L63.6992 32.9805Z" fill="black"/>
<path d="M79.2 29.8047L76.0234 29.8047L76.0234 32.9813L79.2 32.9813L79.2 29.8047Z" fill="black"/>
<path d="M39.0469 33.7952L39.0469 35.158C39.0469 35.6599 39.4535 36.0633 39.9554 36.0633L41.3181 36.0633C41.8232 36.0633 42.2266 35.6567 42.2266 35.1548L42.2266 33.7952C42.2235 33.2901 41.8169 32.8867 41.315 32.8867L39.9554 32.8867C39.4535 32.8867 39.0469 33.2933 39.0469 33.7952Z" fill="black"/>
<path d="M48.3906 32.8867L48.3906 34.9833C48.3906 35.5798 47.9071 36.0633 47.3106 36.0633L46.2941 36.0633C45.6976 36.0633 45.214 35.5798 45.214 34.9833L45.214 32.8867L48.3906 32.8867Z" fill="black"/>
<path d="M51.375 33.7952L51.375 35.158C51.375 35.6599 51.7816 36.0633 52.2835 36.0633L53.6463 36.0633C54.1513 36.0633 54.5548 35.6567 54.5548 35.1548L54.5548 33.7952C54.5516 33.2901 54.145 32.8867 53.6431 32.8867L52.2835 32.8867C51.7816 32.8867 51.375 33.2933 51.375 33.7952Z" fill="black"/>
<path d="M56.6641 35.9991L56.6641 36.0626L57.6329 36.0626L57.6329 35.0938L57.5694 35.0938C57.5694 35.5957 57.1628 35.9991 56.6641 35.9991Z" fill="black"/>
<path d="M57.5352 36.0625L57.5352 33.9659C57.5352 33.3695 58.0187 32.8859 58.6152 32.8859L59.6317 32.8859C60.2282 32.8859 60.7117 33.3695 60.7117 33.9659L60.7117 36.0625L57.5352 36.0625Z" fill="black"/>
<path d="M62.8242 35.9991L62.8242 36.0626L63.7931 36.0626L63.7931 35.0938L63.7295 35.0938C63.7295 35.5957 63.3229 35.9991 62.8242 35.9991Z" fill="black"/>
<path d="M66.8758 32.8867L63.6992 32.8867L63.6992 36.0633L66.8758 36.0633L66.8758 32.8867Z" fill="black"/>
<path d="M68.9883 35.9991L68.9883 36.0626L69.9571 36.0626L69.9571 35.0938L69.8936 35.0938C69.8936 35.5957 69.487 35.9991 68.9883 35.9991Z" fill="black"/>
<path d="M69.8633 36.0625L69.8633 33.9659C69.8633 33.3695 70.3468 32.8859 70.9433 32.8859L71.9598 32.8859C72.5563 32.8859 73.0399 33.3695 73.0399 33.9659L73.0399 36.0625L69.8633 36.0625Z" fill="black"/>
<path d="M79.2 32.8867L76.0234 32.8867L76.0234 36.0633L79.2 36.0633L79.2 32.8867Z" fill="black"/>
<path d="M42.1289 39.1406L42.1289 37.0441C42.1289 36.4476 42.6125 35.964 43.2089 35.964L44.2255 35.964C44.8219 35.964 45.3055 36.4476 45.3055 37.0441L45.3055 39.1406L42.1289 39.1406Z" fill="black"/>
<path d="M48.293 39.1406L48.293 37.0441C48.293 36.4476 48.7765 35.964 49.373 35.964L50.3895 35.964C50.986 35.964 51.4696 36.4476 51.4696 37.0441L51.4696 39.1406L48.293 39.1406Z" fill="black"/>
<path d="M57.6328 39.1406L55.5363 39.1406C54.9398 39.1406 54.4562 38.6571 54.4562 38.0606L54.4562 37.0441C54.4562 36.4476 54.9398 35.964 55.5363 35.964L57.6328 35.964L57.6328 39.1406Z" fill="black"/>
<path d="M60.7117 35.9688L57.5352 35.9688L57.5352 39.1453L60.7117 39.1453L60.7117 35.9688Z" fill="black"/>
<path d="M63.7938 35.9688L60.6172 35.9688L60.6172 39.1453L63.7938 39.1453L63.7938 35.9688Z" fill="black"/>
<path d="M66.8758 35.9688L63.6992 35.9688L63.6992 39.1453L66.8758 39.1453L66.8758 35.9688Z" fill="black"/>
<path d="M69.9578 35.9688L66.7813 35.9688L66.7813 39.1453L69.9578 39.1453L69.9578 35.9688Z" fill="black"/>
<path d="M69.8633 35.9688L73.0399 35.9688L73.0399 38.0653C73.0399 38.6618 72.5563 39.1453 71.9598 39.1453L69.8633 39.1453L69.8633 35.9688Z" fill="black"/>
<path d="M79.2 35.9688L76.0234 35.9688L76.0234 39.1453L79.2 39.1453L79.2 35.9688Z" fill="black"/>
<path d="M26.8203 42.2227L23.6437 42.2227L23.6437 40.1261C23.6437 39.5296 24.1273 39.0461 24.7238 39.0461L26.8203 39.0461L26.8203 42.2227Z" fill="black"/>
<path d="M26.7227 42.2227L26.7227 39.0461L28.8192 39.0461C29.4157 39.0461 29.8992 39.5296 29.8992 40.1261L29.8992 42.2227L26.7227 42.2227Z" fill="black"/>
<path d="M36.0664 42.2227L33.9699 42.2227C33.3734 42.2227 32.8898 41.7391 32.8898 41.1426L32.8898 40.1261C32.8898 39.5296 33.3734 39.0461 33.9699 39.0461L36.0664 39.0461L36.0664 42.2227Z" fill="black"/>
<path d="M35.9688 42.2227L35.9688 39.0461L38.0653 39.0461C38.6618 39.0461 39.1453 39.5296 39.1453 40.1261L39.1453 42.2227L35.9688 42.2227Z" fill="black"/>
<path d="M45.3086 39.0469L45.3086 41.1434C45.3086 41.7399 44.825 42.2235 44.2286 42.2235L43.212 42.2235C42.6156 42.2235 42.132 41.7399 42.132 41.1434L42.132 39.0469L45.3086 39.0469Z" fill="black"/>
<path d="M47.418 42.1631L47.418 42.2267L48.3868 42.2267L48.3868 41.2578L48.3233 41.2578C48.3233 41.7597 47.9167 42.1631 47.418 42.1631Z" fill="black"/>
<path d="M51.4696 39.0469L48.293 39.0469L48.293 42.2235L51.4696 42.2235L51.4696 39.0469Z" fill="black"/>
<path d="M66.8758 39.0469L63.6992 39.0469L63.6992 42.2235L66.8758 42.2235L66.8758 39.0469Z" fill="black"/>
<path d="M75.1523 42.1631L75.1523 42.2267L76.1212 42.2267L76.1212 41.2578L76.0577 41.2578C76.0577 41.7597 75.6511 42.1631 75.1523 42.1631Z" fill="black"/>
<path d="M79.2 39.0469L76.0234 39.0469L76.0234 42.2235L79.2 42.2235L79.2 39.0469Z" fill="black"/>
<path d="M90.5586 42.1631L90.5586 42.2267L91.5275 42.2267L91.5275 41.2578L91.4639 41.2578C91.4639 41.7597 91.0573 42.1631 90.5586 42.1631Z" fill="black"/>
<path d="M94.6094 42.2227L91.4328 42.2227L91.4328 40.1261C91.4328 39.5296 91.9163 39.0461 92.5128 39.0461L94.6094 39.0461L94.6094 42.2227Z" fill="black"/>
<path d="M94.5117 42.2227L94.5117 39.0461L96.6083 39.0461C97.2048 39.0461 97.6883 39.5296 97.6883 40.1261L97.6883 42.2227L94.5117 42.2227Z" fill="black"/>
<path d="M17.5781 45.3047L14.4015 45.3047L14.4015 43.2081C14.4015 42.6116 14.8851 42.1281 15.4816 42.1281L17.5781 42.1281L17.5781 45.3047Z" fill="black"/>
<path d="M17.4805 45.3047L17.4805 42.1281L19.577 42.1281C20.1735 42.1281 20.6571 42.6116 20.6571 43.2081L20.6571 45.3047L17.4805 45.3047Z" fill="black"/>
<path d="M26.8203 42.1289L26.8203 45.3055L24.7238 45.3055C24.1273 45.3055 23.6437 44.8219 23.6437 44.2255L23.6437 42.1289L26.8203 42.1289Z" fill="black"/>
<path d="M29.8992 42.1289L26.7227 42.1289L26.7227 45.3055L29.8992 45.3055L29.8992 42.1289Z" fill="black"/>
<path d="M39.1445 42.1289L39.1445 45.3055L37.048 45.3055C36.4515 45.3055 35.9679 44.8219 35.9679 44.2255L35.9679 42.1289L39.1445 42.1289Z" fill="black"/>
<path d="M39.0469 45.3047L39.0469 42.1281L41.1434 42.1281C41.7399 42.1281 42.2235 42.6116 42.2235 43.2081L42.2235 45.3047L39.0469 45.3047Z" fill="black"/>
<path d="M48.3906 45.3047L46.2941 45.3047C45.6976 45.3047 45.214 44.8211 45.214 44.2246L45.214 43.2081C45.214 42.6116 45.6976 42.1281 46.2941 42.1281L48.3906 42.1281L48.3906 45.3047Z" fill="black"/>
<path d="M51.4696 42.1289L48.293 42.1289L48.293 45.3055L51.4696 45.3055L51.4696 42.1289Z" fill="black"/>
<path d="M54.457 45.3047L54.457 43.2081C54.457 42.6116 54.9406 42.1281 55.5371 42.1281L56.5536 42.1281C57.1501 42.1281 57.6336 42.6116 57.6336 43.2081L57.6336 45.3047L54.457 45.3047Z" fill="black"/>
<path d="M63.7969 45.3047L61.7003 45.3047C61.1038 45.3047 60.6203 44.8211 60.6203 44.2246L60.6203 43.2081C60.6203 42.6116 61.1038 42.1281 61.7003 42.1281L63.7969 42.1281L63.7969 45.3047Z" fill="black"/>
<path d="M66.8758 42.1289L63.6992 42.1289L63.6992 45.3055L66.8758 45.3055L66.8758 42.1289Z" fill="black"/>
<path d="M69.9578 42.1289L66.7813 42.1289L66.7813 45.3055L69.9578 45.3055L69.9578 42.1289Z" fill="black"/>
<path d="M73.0399 42.1289L69.8633 42.1289L69.8633 45.3055L73.0399 45.3055L73.0399 42.1289Z" fill="black"/>
<path d="M76.118 42.1289L72.9414 42.1289L72.9414 45.3055L76.118 45.3055L76.118 42.1289Z" fill="black"/>
<path d="M79.2 42.1289L76.0234 42.1289L76.0234 45.3055L79.2 45.3055L79.2 42.1289Z" fill="black"/>
<path d="M88.4453 45.3047L86.3488 45.3047C85.7523 45.3047 85.2687 44.8211 85.2687 44.2246L85.2687 43.2081C85.2687 42.6116 85.7523 42.1281 86.3488 42.1281L88.4453 42.1281L88.4453 45.3047Z" fill="black"/>
<path d="M91.5242 42.1289L88.3477 42.1289L88.3477 45.3055L91.5242 45.3055L91.5242 42.1289Z" fill="black"/>
<path d="M94.6063 42.1289L91.4297 42.1289L91.4297 45.3055L94.6063 45.3055L94.6063 42.1289Z" fill="black"/>
<path d="M97.5938 43.0374L97.5938 44.4002C97.5938 44.9021 98.0004 45.3055 98.5023 45.3055L99.865 45.3055C100.37 45.3055 100.774 44.8989 100.774 44.397L100.774 43.0374C100.77 42.5323 100.364 42.1289 99.8618 42.1289L98.5023 42.1289C98.0004 42.1289 97.5938 42.5355 97.5938 43.0374Z" fill="black"/>
<path d="M17.5781 45.2109L17.5781 48.3875L15.4816 48.3875C14.8851 48.3875 14.4015 47.904 14.4015 47.3075L14.4015 45.2109L17.5781 45.2109Z" fill="black"/>
<path d="M17.4805 45.2109L20.6571 45.2109L20.6571 47.3075C20.6571 47.904 20.1735 48.3875 19.577 48.3875L17.4805 48.3875L17.4805 45.2109Z" fill="black"/>
<path d="M29.8992 45.2109L26.7227 45.2109L26.7227 48.3875L29.8992 48.3875L29.8992 45.2109Z" fill="black"/>
<path d="M32.9813 45.2109L29.8047 45.2109L29.8047 48.3875L32.9813 48.3875L32.9813 45.2109Z" fill="black"/>
<path d="M32.8867 48.3867L32.8867 45.2101L34.9833 45.2101C35.5798 45.2101 36.0633 45.6937 36.0633 46.2902L36.0633 48.3867L32.8867 48.3867Z" fill="black"/>
<path d="M42.2266 45.2109L42.2266 47.3075C42.2266 47.904 41.743 48.3875 41.1465 48.3875L40.13 48.3875C39.5335 48.3875 39.05 47.904 39.05 47.3075L39.05 45.2109L42.2266 45.2109Z" fill="black"/>
<path d="M51.4727 45.2109L51.4727 47.3075C51.4727 47.904 50.9891 48.3875 50.3926 48.3875L49.3761 48.3875C48.7796 48.3875 48.2961 47.904 48.2961 47.3075L48.2961 45.2109L51.4727 45.2109Z" fill="black"/>
<path d="M57.6328 45.2109L57.6328 48.3875L55.5363 48.3875C54.9398 48.3875 54.4562 47.904 54.4562 47.3075L54.4562 45.2109L57.6328 45.2109Z" fill="black"/>
<path d="M57.5352 48.3867L57.5352 45.2101L59.6317 45.2101C60.2282 45.2101 60.7117 45.6937 60.7117 46.2902L60.7117 48.3867L57.5352 48.3867Z" fill="black"/>
<path d="M66.8789 45.2109L66.8789 47.3075C66.8789 47.904 66.3954 48.3875 65.7989 48.3875L64.7824 48.3875C64.1859 48.3875 63.7023 47.904 63.7023 47.3075L63.7023 45.2109L66.8789 45.2109Z" fill="black"/>
<path d="M73.0399 45.2109L69.8633 45.2109L69.8633 48.3875L73.0399 48.3875L73.0399 45.2109Z" fill="black"/>
<path d="M79.2 45.2109L76.0234 45.2109L76.0234 48.3875L79.2 48.3875L79.2 45.2109Z" fill="black"/>
<path d="M82.2821 45.2109L79.1055 45.2109L79.1055 48.3875L82.2821 48.3875L82.2821 45.2109Z" fill="black"/>
<path d="M82.1875 48.3867L82.1875 45.2101L84.2841 45.2101C84.8805 45.2101 85.3641 45.6937 85.3641 46.2902L85.3641 48.3867L82.1875 48.3867Z" fill="black"/>
<path d="M91.5242 45.2109L88.3477 45.2109L88.3477 48.3875L91.5242 48.3875L91.5242 45.2109Z" fill="black"/>
<path d="M94.6063 45.2109L91.4297 45.2109L91.4297 48.3875L94.6063 48.3875L94.6063 45.2109Z" fill="black"/>
<path d="M94.5117 48.3867L94.5117 45.2101L96.6083 45.2101C97.2048 45.2101 97.6883 45.6937 97.6883 46.2902L97.6883 48.3867L94.5117 48.3867Z" fill="black"/>
<path d="M20.5625 49.2015L20.5625 50.5642C20.5625 51.0661 20.9691 51.4696 21.471 51.4696L22.8338 51.4696C23.3388 51.4696 23.7423 51.063 23.7423 50.5611L23.7423 49.2015C23.7391 48.6964 23.3325 48.293 22.8306 48.293L21.471 48.293C20.9691 48.293 20.5625 48.6996 20.5625 49.2015Z" fill="black"/>
<path d="M25.8516 51.4053L25.8516 51.4689L26.8204 51.4689L26.8204 50.5L26.7569 50.5C26.7569 51.0019 26.3503 51.4053 25.8516 51.4053Z" fill="black"/>
<path d="M29.8992 48.293L26.7227 48.293L26.7227 51.4696L29.8992 51.4696L29.8992 48.293Z" fill="black"/>
<path d="M45.3086 51.4688L43.212 51.4687C42.6156 51.4687 42.132 50.9852 42.132 50.3887L42.132 49.3722C42.132 48.7757 42.6156 48.2922 43.212 48.2922L45.3086 48.2922L45.3086 51.4688Z" fill="black"/>
<path d="M45.2109 51.4688L45.2109 48.2922L47.3075 48.2922C47.904 48.2922 48.3875 48.7757 48.3875 49.3722L48.3875 51.4688L45.2109 51.4688Z" fill="black"/>
<path d="M60.7117 48.293L57.5352 48.293L57.5352 51.4696L60.7117 51.4696L60.7117 48.293Z" fill="black"/>
<path d="M73.0399 48.293L69.8633 48.293L69.8633 51.4696L73.0399 51.4696L73.0399 48.293Z" fill="black"/>
<path d="M75.1523 51.4053L75.1523 51.4689L76.1212 51.4689L76.1212 50.5L76.0577 50.5C76.0577 51.0019 75.6511 51.4053 75.1523 51.4053Z" fill="black"/>
<path d="M79.2 48.293L76.0234 48.293L76.0234 51.4696L79.2 51.4696L79.2 48.293Z" fill="black"/>
<path d="M88.4453 51.4688L86.3488 51.4687C85.7523 51.4687 85.2687 50.9852 85.2687 50.3887L85.2687 49.3722C85.2687 48.7757 85.7523 48.2922 86.3488 48.2922L88.4453 48.2922L88.4453 51.4688Z" fill="black"/>
<path d="M88.3477 48.293L91.5242 48.293L91.5242 50.3895C91.5242 50.986 91.0407 51.4696 90.4442 51.4696L88.3477 51.4696L88.3477 48.293Z" fill="black"/>
<path d="M100.676 49.2015L100.676 50.5642C100.676 51.0661 101.082 51.4696 101.584 51.4696L102.947 51.4696C103.452 51.4696 103.856 51.063 103.856 50.5611L103.856 49.2015C103.852 48.6964 103.446 48.293 102.944 48.293L101.584 48.293C101.082 48.293 100.676 48.6996 100.676 49.2015Z" fill="black"/>
<path d="M17.4805 52.2835L17.4805 53.6463C17.4805 54.1482 17.8871 54.5516 18.389 54.5516L19.7517 54.5516C20.2568 54.5516 20.6602 54.145 20.6602 53.6431L20.6602 52.2835C20.6571 51.7784 20.2505 51.375 19.7486 51.375L18.389 51.375C17.8871 51.375 17.4805 51.7816 17.4805 52.2835Z" fill="black"/>
<path d="M26.8203 54.5508L24.7238 54.5508C24.1273 54.5508 23.6437 54.0672 23.6437 53.4707L23.6437 52.4542C23.6437 51.8577 24.1273 51.3742 24.7238 51.3742L26.8203 51.3742L26.8203 54.5508Z" fill="black"/>
<path d="M29.8992 51.375L26.7227 51.375L26.7227 54.5516L29.8992 54.5516L29.8992 51.375Z" fill="black"/>
<path d="M32.8867 52.2835L32.8867 53.6463C32.8867 54.1482 33.2933 54.5516 33.7952 54.5516L35.158 54.5516C35.6631 54.5516 36.0665 54.145 36.0665 53.6431L36.0665 52.2835C36.0633 51.7784 35.6567 51.375 35.1548 51.375L33.7952 51.375C33.2933 51.375 32.8867 51.7816 32.8867 52.2835Z" fill="black"/>
<path d="M38.1758 54.4874L38.1758 54.5509L39.1446 54.5509L39.1446 53.582L39.0811 53.582C39.0811 54.0839 38.6745 54.4874 38.1758 54.4874Z" fill="black"/>
<path d="M39.0469 54.5508L39.0469 52.4542C39.0469 51.8577 39.5304 51.3742 40.1269 51.3742L41.1434 51.3742C41.7399 51.3742 42.2235 51.8577 42.2235 52.4542L42.2235 54.5508L39.0469 54.5508Z" fill="black"/>
<path d="M60.7117 51.375L57.5352 51.375L57.5352 54.5516L60.7117 54.5516L60.7117 51.375Z" fill="black"/>
<path d="M63.6992 54.5508L63.6992 52.4542C63.6992 51.8577 64.1828 51.3742 64.7793 51.3742L65.7958 51.3742C66.3923 51.3742 66.8758 51.8577 66.8758 52.4542L66.8758 54.5508L63.6992 54.5508Z" fill="black"/>
<path d="M73.0399 51.375L69.8633 51.375L69.8633 54.5516L73.0399 54.5516L73.0399 51.375Z" fill="black"/>
<path d="M76.118 51.375L72.9414 51.375L72.9414 54.5516L76.118 54.5516L76.118 51.375Z" fill="black"/>
<path d="M79.2 51.375L76.0234 51.375L76.0234 54.5516L79.2 54.5516L79.2 51.375Z" fill="black"/>
<path d="M82.2821 51.375L79.1055 51.375L79.1055 54.5516L82.2821 54.5516L82.2821 51.375Z" fill="black"/>
<path d="M82.1875 54.5508L82.1875 51.3742L84.2841 51.3742C84.8805 51.3742 85.3641 51.8577 85.3641 52.4542L85.3641 54.5508L82.1875 54.5508Z" fill="black"/>
<path d="M91.4297 52.2835L91.4297 53.6463C91.4297 54.1482 91.8363 54.5516 92.3382 54.5516L93.701 54.5516C94.206 54.5516 94.6095 54.145 94.6095 53.6431L94.6095 52.2835C94.6063 51.7784 94.1997 51.375 93.6978 51.375L92.3382 51.375C91.8363 51.375 91.4297 51.7816 91.4297 52.2835Z" fill="black"/>
<path d="M97.5938 52.2835L97.5938 53.6463C97.5938 54.1482 98.0004 54.5516 98.5023 54.5516L99.865 54.5516C100.37 54.5516 100.774 54.145 100.774 53.6431L100.774 52.2835C100.77 51.7784 100.364 51.375 99.8618 51.375L98.5023 51.375C98.0004 51.375 97.5938 51.7816 97.5938 52.2835Z" fill="black"/>
<path d="M20.5625 55.3655L20.5625 56.7283C20.5625 57.2302 20.9691 57.6336 21.471 57.6336L22.8338 57.6336C23.3388 57.6336 23.7423 57.227 23.7423 56.7251L23.7423 55.3655C23.7391 54.8605 23.3325 54.457 22.8306 54.457L21.471 54.457C20.9691 54.457 20.5625 54.8636 20.5625 55.3655Z" fill="black"/>
<path d="M29.8992 54.457L26.7227 54.457L26.7227 57.6336L29.8992 57.6336L29.8992 54.457Z" fill="black"/>
<path d="M39.1445 57.6289L37.048 57.6289C36.4515 57.6289 35.9679 57.1454 35.9679 56.5489L35.9679 55.5324C35.9679 54.9359 36.4515 54.4523 37.048 54.4523L39.1445 54.4523L39.1445 57.6289Z" fill="black"/>
<path d="M42.2235 54.457L39.0469 54.457L39.0469 57.6336L42.2235 57.6336L42.2235 54.457Z" fill="black"/>
<path d="M42.1289 57.6289L42.1289 54.4523L44.2255 54.4523C44.8219 54.4523 45.3055 54.9359 45.3055 55.5324L45.3055 57.6289L42.1289 57.6289Z" fill="black"/>
<path d="M60.7148 54.457L60.7148 56.5536C60.7148 57.1501 60.2313 57.6336 59.6348 57.6336L58.6183 57.6336C58.0218 57.6336 57.5383 57.1501 57.5383 56.5536L57.5383 54.457L60.7148 54.457Z" fill="black"/>
<path d="M62.8242 57.5694L62.8242 57.6329L63.7931 57.6329L63.7931 56.6641L63.7295 56.6641C63.7295 57.166 63.3229 57.5694 62.8242 57.5694Z" fill="black"/>
<path d="M66.8758 54.457L63.6992 54.457L63.6992 57.6336L66.8758 57.6336L66.8758 54.457Z" fill="black"/>
<path d="M73.0391 54.457L73.0391 56.5536C73.0391 57.1501 72.5555 57.6336 71.959 57.6336L70.9425 57.6336C70.346 57.6336 69.8625 57.1501 69.8625 56.5536L69.8625 54.457L73.0391 54.457Z" fill="black"/>
<path d="M85.3672 54.457L85.3672 56.5536C85.3672 57.1501 84.8836 57.6336 84.2871 57.6336L83.2706 57.6336C82.6741 57.6336 82.1906 57.1501 82.1906 56.5536L82.1906 54.457L85.3672 54.457Z" fill="black"/>
<path d="M88.3477 55.3655L88.3477 56.7283C88.3477 57.2302 88.7543 57.6336 89.2562 57.6336L90.6189 57.6336C91.124 57.6336 91.5274 57.227 91.5274 56.7251L91.5274 55.3655C91.5242 54.8605 91.1176 54.457 90.6157 54.457L89.2562 54.457C88.7543 54.457 88.3477 54.8636 88.3477 55.3655Z" fill="black"/>
<path d="M94.5117 55.3655L94.5117 56.7283C94.5117 57.2302 94.9183 57.6336 95.4202 57.6336L96.783 57.6336C97.2881 57.6336 97.6915 57.227 97.6915 56.7251L97.6915 55.3655C97.6883 54.8605 97.2817 54.457 96.7798 54.457L95.4202 54.457C94.9183 54.457 94.5117 54.8636 94.5117 55.3655Z" fill="black"/>
<path d="M100.676 57.6289L100.676 55.5324C100.676 54.9359 101.159 54.4523 101.756 54.4523L102.772 54.4523C103.369 54.4523 103.852 54.9359 103.852 55.5324L103.852 57.6289L100.676 57.6289Z" fill="black"/>
<path d="M25.8516 60.6514L25.8516 60.715L26.8204 60.715L26.8204 59.7461L26.7569 59.7461C26.7569 60.248 26.3503 60.6514 25.8516 60.6514Z" fill="black"/>
<path d="M29.8992 57.5352L26.7227 57.5352L26.7227 60.7117L29.8992 60.7117L29.8992 57.5352Z" fill="black"/>
<path d="M32.8867 58.4437L32.8867 59.8064C32.8867 60.3083 33.2933 60.7117 33.7952 60.7117L35.158 60.7117C35.6631 60.7117 36.0665 60.3051 36.0665 59.8032L36.0665 58.4437C36.0633 57.9386 35.6567 57.5352 35.1548 57.5352L33.7952 57.5352C33.2933 57.5352 32.8867 57.9418 32.8867 58.4437Z" fill="black"/>
<path d="M42.2235 57.5352L39.0469 57.5352L39.0469 60.7117L42.2235 60.7117L42.2235 57.5352Z" fill="black"/>
<path d="M42.1289 57.5352L45.3055 57.5352L45.3055 59.6317C45.3055 60.2282 44.8219 60.7117 44.2255 60.7117L42.1289 60.7117L42.1289 57.5352Z" fill="black"/>
<path d="M51.375 58.4437L51.375 59.8064C51.375 60.3083 51.7816 60.7117 52.2835 60.7117L53.6463 60.7117C54.1513 60.7117 54.5548 60.3051 54.5548 59.8032L54.5548 58.4437C54.5516 57.9386 54.145 57.5352 53.6431 57.5352L52.2835 57.5352C51.7816 57.5352 51.375 57.9418 51.375 58.4437Z" fill="black"/>
<path d="M63.7969 60.7109L60.6203 60.7109L60.6203 58.6144C60.6203 58.0179 61.1038 57.5343 61.7003 57.5343L63.7969 57.5343L63.7969 60.7109Z" fill="black"/>
<path d="M63.6992 57.5352L66.8758 57.5352L66.8758 59.6317C66.8758 60.2282 66.3923 60.7117 65.7958 60.7117L63.6992 60.7117L63.6992 57.5352Z" fill="black"/>
<path d="M72.0703 60.6514L72.0703 60.715L73.0392 60.715L73.0392 59.7461L72.9756 59.7461C72.9756 60.248 72.569 60.6514 72.0703 60.6514Z" fill="black"/>
<path d="M72.9414 60.7109L72.9414 58.6144C72.9414 58.0179 73.425 57.5343 74.0214 57.5343L75.038 57.5343C75.6344 57.5343 76.118 58.0179 76.118 58.6144L76.118 60.7109L72.9414 60.7109Z" fill="black"/>
<path d="M85.2695 58.4437L85.2695 59.8064C85.2695 60.3083 85.6761 60.7117 86.178 60.7117L87.5408 60.7117C88.0459 60.7117 88.4493 60.3051 88.4493 59.8032L88.4493 58.4437C88.4461 57.9386 88.0395 57.5352 87.5376 57.5352L86.178 57.5352C85.6761 57.5352 85.2695 57.9418 85.2695 58.4437Z" fill="black"/>
<path d="M90.5586 60.6514L90.5586 60.715L91.5275 60.715L91.5275 59.7461L91.4639 59.7461C91.4639 60.248 91.0573 60.6514 90.5586 60.6514Z" fill="black"/>
<path d="M91.4297 60.7109L91.4297 58.6144C91.4297 58.0179 91.9132 57.5343 92.5097 57.5343L93.5262 57.5343C94.1227 57.5343 94.6063 58.0179 94.6063 58.6144L94.6063 60.7109L91.4297 60.7109Z" fill="black"/>
<path d="M103.852 57.5352L103.852 59.6317C103.852 60.2282 103.368 60.7117 102.772 60.7117L101.755 60.7117C101.159 60.7117 100.675 60.2282 100.675 59.6317L100.675 57.5352L103.852 57.5352Z" fill="black"/>
<path d="M14.3984 63.793L14.3984 61.6964C14.3984 61.0999 14.882 60.6164 15.4785 60.6164L16.495 60.6164C17.0915 60.6164 17.575 61.0999 17.575 61.6964L17.575 63.793L14.3984 63.793Z" fill="black"/>
<path d="M23.7383 63.793L21.6417 63.793C21.0452 63.793 20.5617 63.3094 20.5617 62.7129L20.5617 61.6964C20.5617 61.0999 21.0452 60.6164 21.6417 60.6164L23.7383 60.6164L23.7383 63.793Z" fill="black"/>
<path d="M26.8172 60.6172L23.6406 60.6172L23.6406 63.7938L26.8172 63.7938L26.8172 60.6172Z" fill="black"/>
<path d="M29.8992 60.6172L26.7227 60.6172L26.7227 63.7938L29.8992 63.7938L29.8992 60.6172Z" fill="black"/>
<path d="M29.8047 63.793L29.8047 60.6164L31.9012 60.6164C32.4977 60.6164 32.9813 61.0999 32.9813 61.6964L32.9813 63.793L29.8047 63.793Z" fill="black"/>
<path d="M35.0938 63.7295L35.0938 63.7931L36.0626 63.7931L36.0626 62.8242L35.9991 62.8242C35.9991 63.3261 35.5925 63.7295 35.0938 63.7295Z" fill="black"/>
<path d="M39.1445 63.793L35.9679 63.793L35.9679 61.6964C35.9679 61.0999 36.4515 60.6164 37.048 60.6164L39.1445 60.6164L39.1445 63.793Z" fill="black"/>
<path d="M39.0469 60.6172L42.2235 60.6172L42.2235 62.7137C42.2235 63.3102 41.7399 63.7938 41.1434 63.7938L39.0469 63.7938L39.0469 60.6172Z" fill="black"/>
<path d="M48.293 61.5257L48.293 62.8885C48.293 63.3904 48.6996 63.7938 49.2015 63.7938L50.5642 63.7938C51.0693 63.7938 51.4727 63.3872 51.4727 62.8853L51.4727 61.5257C51.4696 61.0206 51.063 60.6172 50.5611 60.6172L49.2015 60.6172C48.6996 60.6172 48.293 61.0238 48.293 61.5257Z" fill="black"/>
<path d="M54.457 61.5257L54.457 62.8885C54.457 63.3904 54.8636 63.7938 55.3655 63.7938L56.7283 63.7938C57.2334 63.7938 57.6368 63.3872 57.6368 62.8853L57.6368 61.5257C57.6336 61.0206 57.227 60.6172 56.7251 60.6172L55.3655 60.6172C54.8636 60.6172 54.457 61.0238 54.457 61.5257Z" fill="black"/>
<path d="M59.7461 63.7295L59.7461 63.7931L60.715 63.7931L60.715 62.8242L60.6514 62.8242C60.6514 63.3261 60.2448 63.7295 59.7461 63.7295Z" fill="black"/>
<path d="M63.7938 60.6172L60.6172 60.6172L60.6172 63.7938L63.7938 63.7938L63.7938 60.6172Z" fill="black"/>
<path d="M73.0391 63.793L70.9425 63.793C70.346 63.793 69.8625 63.3094 69.8625 62.7129L69.8625 61.6964C69.8625 61.0999 70.346 60.6164 70.9425 60.6164L73.0391 60.6164L73.0391 63.793Z" fill="black"/>
<path d="M72.9414 60.6172L76.118 60.6172L76.118 62.7137C76.118 63.3102 75.6344 63.7938 75.038 63.7938L72.9414 63.7938L72.9414 60.6172Z" fill="black"/>
<path d="M91.5273 63.793L89.4308 63.793C88.8343 63.793 88.3508 63.3094 88.3508 62.7129L88.3508 61.6964C88.3508 61.0999 88.8343 60.6164 89.4308 60.6164L91.5273 60.6164L91.5273 63.793Z" fill="black"/>
<path d="M94.6063 60.6172L91.4297 60.6172L91.4297 63.7938L94.6063 63.7938L94.6063 60.6172Z" fill="black"/>
<path d="M97.6883 60.6172L94.5117 60.6172L94.5117 63.7938L97.6883 63.7938L97.6883 60.6172Z" fill="black"/>
<path d="M97.5938 63.793L97.5938 60.6164L99.6903 60.6164C100.287 60.6164 100.77 61.0999 100.77 61.6964L100.77 63.793L97.5938 63.793Z" fill="black"/>
<path d="M17.575 63.6992L14.3984 63.6992L14.3984 66.8758L17.575 66.8758L17.575 63.6992Z" fill="black"/>
<path d="M26.8203 63.6992L26.8203 65.7958C26.8203 66.3923 26.3368 66.8758 25.7403 66.8758L24.7238 66.8758C24.1273 66.8758 23.6437 66.3923 23.6437 65.7958L23.6437 63.6992L26.8203 63.6992Z" fill="black"/>
<path d="M32.9844 63.6992L32.9844 66.8758L30.8878 66.8758C30.2913 66.8758 29.8078 66.3923 29.8078 65.7958L29.8078 63.6992L32.9844 63.6992Z" fill="black"/>
<path d="M36.0633 63.6992L32.8867 63.6992L32.8867 66.8758L36.0633 66.8758L36.0633 63.6992Z" fill="black"/>
<path d="M35.9688 63.6992L39.1453 63.6992L39.1453 65.7958C39.1453 66.3923 38.6618 66.8758 38.0653 66.8758L35.9688 66.8758L35.9688 63.6992Z" fill="black"/>
<path d="M45.3086 66.875L43.212 66.875C42.6156 66.875 42.132 66.3914 42.132 65.795L42.132 64.7784C42.132 64.182 42.6156 63.6984 43.212 63.6984L45.3086 63.6984L45.3086 66.875Z" fill="black"/>
<path d="M45.2109 66.875L45.2109 63.6984L47.3075 63.6984C47.904 63.6984 48.3875 64.182 48.3875 64.7784L48.3875 66.875L45.2109 66.875Z" fill="black"/>
<path d="M51.375 64.6077L51.375 65.9705C51.375 66.4724 51.7816 66.8758 52.2835 66.8758L53.6463 66.8758C54.1513 66.8758 54.5548 66.4692 54.5548 65.9673L54.5548 64.6077C54.5516 64.1026 54.145 63.6992 53.6431 63.6992L52.2835 63.6992C51.7816 63.6992 51.375 64.1058 51.375 64.6077Z" fill="black"/>
<path d="M60.7148 66.875L58.6183 66.875C58.0218 66.875 57.5383 66.3914 57.5383 65.795L57.5383 64.7784C57.5383 64.182 58.0218 63.6984 58.6183 63.6984L60.7148 63.6984L60.7148 66.875Z" fill="black"/>
<path d="M63.7938 63.6992L60.6172 63.6992L60.6172 66.8758L63.7938 66.8758L63.7938 63.6992Z" fill="black"/>
<path d="M79.1055 66.875L79.1055 64.7784C79.1055 64.182 79.589 63.6984 80.1855 63.6984L81.202 63.6984C81.7985 63.6984 82.2821 64.182 82.2821 64.7784L82.2821 66.875L79.1055 66.875Z" fill="black"/>
<path d="M85.2695 64.6077L85.2695 65.9705C85.2695 66.4724 85.6761 66.8758 86.178 66.8758L87.5408 66.8758C88.0459 66.8758 88.4493 66.4692 88.4493 65.9673L88.4493 64.6077C88.4461 64.1026 88.0395 63.6992 87.5376 63.6992L86.178 63.6992C85.6761 63.6992 85.2695 64.1058 85.2695 64.6077Z" fill="black"/>
<path d="M94.6063 63.6992L91.4297 63.6992L91.4297 66.8758L94.6063 66.8758L94.6063 63.6992Z" fill="black"/>
<path d="M100.676 64.6077L100.676 65.9705C100.676 66.4724 101.082 66.8758 101.584 66.8758L102.947 66.8758C103.452 66.8758 103.856 66.4692 103.856 65.9673L103.856 64.6077C103.852 64.1026 103.446 63.6992 102.944 63.6992L101.584 63.6992C101.082 63.6992 100.676 64.1058 100.676 64.6077Z" fill="black"/>
<path d="M17.575 66.7813L14.3984 66.7812L14.3984 69.9578L17.575 69.9578L17.575 66.7813Z" fill="black"/>
<path d="M20.6571 66.7813L17.4805 66.7812L17.4805 69.9578L20.6571 69.9578L20.6571 66.7813Z" fill="black"/>
<path d="M20.5625 69.957L20.5625 66.7804L22.6591 66.7804C23.2555 66.7804 23.7391 67.264 23.7391 67.8605L23.7391 69.957L20.5625 69.957Z" fill="black"/>
<path d="M48.293 67.6898L48.293 69.0525C48.293 69.5544 48.6996 69.9578 49.2015 69.9578L50.5642 69.9578C51.0693 69.9578 51.4727 69.5512 51.4727 69.0493L51.4727 67.6898C51.4696 67.1847 51.063 66.7813 50.5611 66.7813L49.2015 66.7813C48.6996 66.7813 48.293 67.1879 48.293 67.6898Z" fill="black"/>
<path d="M54.457 67.6898L54.457 69.0525C54.457 69.5544 54.8636 69.9578 55.3655 69.9578L56.7283 69.9578C57.2334 69.9578 57.6368 69.5512 57.6368 69.0493L57.6368 67.6898C57.6336 67.1847 57.227 66.7813 56.7251 66.7813L55.3655 66.7813C54.8636 66.7813 54.457 67.1879 54.457 67.6898Z" fill="black"/>
<path d="M63.7969 66.7812L63.7969 69.9578L61.7003 69.9578C61.1038 69.9578 60.6203 69.4743 60.6203 68.8778L60.6203 66.7812L63.7969 66.7812Z" fill="black"/>
<path d="M66.8758 66.7813L63.6992 66.7812L63.6992 69.9578L66.8758 69.9578L66.8758 66.7813Z" fill="black"/>
<path d="M66.7813 69.957L66.7813 66.7804L68.8778 66.7804C69.4743 66.7804 69.9578 67.264 69.9578 67.8605L69.9578 69.957L66.7813 69.957Z" fill="black"/>
<path d="M72.0703 69.8936L72.0703 69.9571L73.0392 69.9571L73.0392 68.9883L72.9756 68.9883C72.9756 69.4902 72.569 69.8936 72.0703 69.8936Z" fill="black"/>
<path d="M72.9414 69.957L72.9414 67.8605C72.9414 67.264 73.425 66.7804 74.0214 66.7804L75.038 66.7804C75.6344 66.7804 76.118 67.264 76.118 67.8605L76.118 69.957L72.9414 69.957Z" fill="black"/>
<path d="M82.2852 66.7812L82.2852 68.8778C82.2852 69.4743 81.8016 69.9578 81.2051 69.9578L80.1886 69.9578C79.5921 69.9578 79.1086 69.4743 79.1086 68.8778L79.1086 66.7812L82.2852 66.7812Z" fill="black"/>
<path d="M91.5273 69.957L89.4308 69.957C88.8343 69.957 88.3508 69.4735 88.3508 68.877L88.3508 67.8605C88.3508 67.264 88.8343 66.7804 89.4308 66.7804L91.5273 66.7804L91.5273 69.957Z" fill="black"/>
<path d="M94.6063 66.7813L91.4297 66.7812L91.4297 69.9578L94.6063 69.9578L94.6063 66.7813Z" fill="black"/>
<path d="M94.5117 69.957L94.5117 66.7804L96.6083 66.7804C97.2048 66.7804 97.6883 67.264 97.6883 67.8605L97.6883 69.957L94.5117 69.957Z" fill="black"/>
<path d="M17.575 69.8633L14.3984 69.8633L14.3984 73.0399L17.575 73.0399L17.575 69.8633Z" fill="black"/>
<path d="M20.6571 69.8633L17.4805 69.8633L17.4805 73.0399L20.6571 73.0399L20.6571 69.8633Z" fill="black"/>
<path d="M29.9023 73.0352L26.7258 73.0352L26.7258 70.9386C26.7258 70.3421 27.2093 69.8586 27.8058 69.8586L29.9023 69.8586L29.9023 73.0352Z" fill="black"/>
<path d="M32.9813 69.8633L29.8047 69.8633L29.8047 73.0399L32.9813 73.0399L32.9813 69.8633Z" fill="black"/>
<path d="M36.0633 69.8633L32.8867 69.8633L32.8867 73.0399L36.0633 73.0399L36.0633 69.8633Z" fill="black"/>
<path d="M35.9688 73.0352L35.9688 69.8586L38.0653 69.8586C38.6618 69.8586 39.1453 70.3421 39.1453 70.9386L39.1453 73.0352L35.9688 73.0352Z" fill="black"/>
<path d="M45.2109 70.7718L45.2109 72.1345C45.2109 72.6364 45.6175 73.0399 46.1194 73.0399L47.4822 73.0399C47.9873 73.0399 48.3907 72.6333 48.3907 72.1314L48.3907 70.7718C48.3875 70.2667 47.9809 69.8633 47.479 69.8633L46.1194 69.8633C45.6175 69.8633 45.2109 70.2699 45.2109 70.7718Z" fill="black"/>
<path d="M51.375 70.7718L51.375 72.1345C51.375 72.6364 51.7816 73.0399 52.2835 73.0399L53.6463 73.0399C54.1513 73.0399 54.5548 72.6333 54.5548 72.1314L54.5548 70.7718C54.5516 70.2667 54.145 69.8633 53.6431 69.8633L52.2835 69.8633C51.7816 69.8633 51.375 70.2699 51.375 70.7718Z" fill="black"/>
<path d="M69.957 69.8633L69.957 73.0399L67.8605 73.0399C67.264 73.0399 66.7804 72.5563 66.7804 71.9598L66.7804 69.8633L69.957 69.8633Z" fill="black"/>
<path d="M73.0399 69.8633L69.8633 69.8633L69.8633 73.0399L73.0399 73.0399L73.0399 69.8633Z" fill="black"/>
<path d="M76.118 69.8633L72.9414 69.8633L72.9414 73.0399L76.118 73.0399L76.118 69.8633Z" fill="black"/>
<path d="M76.0234 73.0352L76.0234 69.8586L78.12 69.8586C78.7165 69.8586 79.2 70.3421 79.2 70.9386L79.2 73.0352L76.0234 73.0352Z" fill="black"/>
<path d="M84.3945 72.9756L84.3945 73.0392L85.3634 73.0392L85.3634 72.0703L85.2999 72.0703C85.2999 72.5722 84.8933 72.9756 84.3945 72.9756Z" fill="black"/>
<path d="M85.2695 73.0352L85.2695 70.9386C85.2695 70.3421 85.7531 69.8586 86.3496 69.8586L87.3661 69.8586C87.9626 69.8586 88.4461 70.3421 88.4461 70.9386L88.4461 73.0352L85.2695 73.0352Z" fill="black"/>
<path d="M99.8008 72.9756L99.8008 73.0392L100.77 73.0392L100.77 72.0703L100.706 72.0703C100.706 72.5722 100.3 72.9756 99.8008 72.9756Z" fill="black"/>
<path d="M100.676 73.0352L100.676 70.9386C100.676 70.3421 101.159 69.8586 101.756 69.8586L102.772 69.8586C103.369 69.8586 103.852 70.3421 103.852 70.9386L103.852 73.0352L100.676 73.0352Z" fill="black"/>
<path d="M17.575 72.9414L14.3984 72.9414L14.3984 76.118L17.575 76.118L17.575 72.9414Z" fill="black"/>
<path d="M20.6571 72.9414L17.4805 72.9414L17.4805 76.118L20.6571 76.118L20.6571 72.9414Z" fill="black"/>
<path d="M20.5625 76.1172L20.5625 72.9406L22.6591 72.9406C23.2555 72.9406 23.7391 73.4241 23.7391 74.0206L23.7391 76.1172L20.5625 76.1172Z" fill="black"/>
<path d="M29.9023 72.9414L29.9023 76.118L27.8058 76.118C27.2093 76.118 26.7258 75.6344 26.7258 75.038L26.7258 72.9414L29.9023 72.9414Z" fill="black"/>
<path d="M29.8047 72.9414L32.9813 72.9414L32.9813 75.038C32.9813 75.6344 32.4977 76.118 31.9012 76.118L29.8047 76.118L29.8047 72.9414Z" fill="black"/>
<path d="M39.1445 72.9414L39.1445 75.038C39.1445 75.6344 38.661 76.118 38.0645 76.118L37.048 76.118C36.4515 76.118 35.9679 75.6344 35.9679 75.038L35.9679 72.9414L39.1445 72.9414Z" fill="black"/>
<path d="M41.2578 76.0577L41.2578 76.1212L42.2267 76.1212L42.2267 75.1523L42.1631 75.1523C42.1631 75.6542 41.7565 76.0577 41.2578 76.0577Z" fill="black"/>
<path d="M42.1289 76.1172L42.1289 74.0206C42.1289 73.4241 42.6125 72.9406 43.2089 72.9406L44.2255 72.9406C44.8219 72.9406 45.3055 73.4241 45.3055 74.0206L45.3055 76.1172L42.1289 76.1172Z" fill="black"/>
<path d="M48.293 73.8499L48.293 75.2127C48.293 75.7146 48.6996 76.118 49.2015 76.118L50.5642 76.118C51.0693 76.118 51.4727 75.7114 51.4727 75.2095L51.4727 73.8499C51.4696 73.3448 51.063 72.9414 50.5611 72.9414L49.2015 72.9414C48.6996 72.9414 48.293 73.348 48.293 73.8499Z" fill="black"/>
<path d="M54.457 73.8499L54.457 75.2127C54.457 75.7146 54.8636 76.118 55.3655 76.118L56.7283 76.118C57.2334 76.118 57.6368 75.7114 57.6368 75.2095L57.6368 73.8499C57.6336 73.3448 57.227 72.9414 56.7251 72.9414L55.3655 72.9414C54.8636 72.9414 54.457 73.348 54.457 73.8499Z" fill="black"/>
<path d="M73.0391 72.9414L73.0391 75.038C73.0391 75.6344 72.5555 76.118 71.959 76.118L70.9425 76.118C70.346 76.118 69.8625 75.6344 69.8625 75.038L69.8625 72.9414L73.0391 72.9414Z" fill="black"/>
<path d="M78.2305 76.0577L78.2305 76.1212L79.1993 76.1212L79.1993 75.1523L79.1358 75.1523C79.1358 75.6542 78.7292 76.0577 78.2305 76.0577Z" fill="black"/>
<path d="M82.2852 76.1172L79.1086 76.1172L79.1086 74.0206C79.1086 73.4241 79.5921 72.9406 80.1886 72.9406L82.2852 72.9406L82.2852 76.1172Z" fill="black"/>
<path d="M85.3641 72.9414L82.1875 72.9414L82.1875 76.118L85.3641 76.118L85.3641 72.9414Z" fill="black"/>
<path d="M88.4461 72.9414L85.2695 72.9414L85.2695 76.118L88.4461 76.118L88.4461 72.9414Z" fill="black"/>
<path d="M88.3477 76.1172L88.3477 72.9406L90.4442 72.9406C91.0407 72.9406 91.5242 73.4241 91.5242 74.0206L91.5242 76.1172L88.3477 76.1172Z" fill="black"/>
<path d="M93.6367 76.0577L93.6367 76.1212L94.6056 76.1212L94.6056 75.1523L94.542 75.1523C94.542 75.6542 94.1354 76.0577 93.6367 76.0577Z" fill="black"/>
<path d="M97.6914 76.1172L94.5148 76.1172L94.5148 74.0206C94.5148 73.4241 94.9984 72.9406 95.5949 72.9406L97.6914 72.9406L97.6914 76.1172Z" fill="black"/>
<path d="M100.77 72.9414L97.5938 72.9414L97.5938 76.118L100.77 76.118L100.77 72.9414Z" fill="black"/>
<path d="M103.852 72.9414L100.676 72.9414L100.676 76.118L103.852 76.118L103.852 72.9414Z" fill="black"/>
<path d="M17.5781 76.0234L17.5781 79.2L15.4816 79.2C14.8851 79.2 14.4015 78.7165 14.4015 78.12L14.4015 76.0234L17.5781 76.0234Z" fill="black"/>
<path d="M17.4805 76.0234L20.6571 76.0234L20.6571 78.12C20.6571 78.7165 20.1735 79.2 19.577 79.2L17.4805 79.2L17.4805 76.0234Z" fill="black"/>
<path d="M32.8867 76.9319L32.8867 78.2947C32.8867 78.7966 33.2933 79.2 33.7952 79.2L35.158 79.2C35.6631 79.2 36.0665 78.7934 36.0665 78.2915L36.0665 76.9319C36.0633 76.4269 35.6567 76.0234 35.1548 76.0234L33.7952 76.0234C33.2933 76.0234 32.8867 76.43 32.8867 76.9319Z" fill="black"/>
<path d="M42.2266 79.1992L39.05 79.1992L39.05 77.1027C39.05 76.5062 39.5335 76.0226 40.13 76.0226L42.2266 76.0226L42.2266 79.1992Z" fill="black"/>
<path d="M45.3055 76.0234L42.1289 76.0234L42.1289 79.2L45.3055 79.2L45.3055 76.0234Z" fill="black"/>
<path d="M45.2109 79.1992L45.2109 76.0226L47.3075 76.0226C47.904 76.0226 48.3875 76.5062 48.3875 77.1027L48.3875 79.1992L45.2109 79.1992Z" fill="black"/>
<path d="M51.375 79.1992L51.375 77.1027C51.375 76.5062 51.8586 76.0226 52.455 76.0226L53.4716 76.0226C54.068 76.0226 54.5516 76.5062 54.5516 77.1027L54.5516 79.1992L51.375 79.1992Z" fill="black"/>
<path d="M66.8789 79.1992L64.7824 79.1992C64.1859 79.1992 63.7023 78.7157 63.7023 78.1192L63.7023 77.1027C63.7023 76.5062 64.1859 76.0226 64.7824 76.0226L66.8789 76.0226L66.8789 79.1992Z" fill="black"/>
<path d="M66.7813 79.1992L66.7813 76.0226L68.8778 76.0226C69.4743 76.0226 69.9578 76.5062 69.9578 77.1027L69.9578 79.1992L66.7813 79.1992Z" fill="black"/>
<path d="M72.0703 79.1358L72.0703 79.1993L73.0392 79.1993L73.0392 78.2305L72.9756 78.2305C72.9756 78.7324 72.569 79.1358 72.0703 79.1358Z" fill="black"/>
<path d="M76.1211 79.1992L72.9445 79.1992L72.9445 77.1027C72.9445 76.5062 73.4281 76.0226 74.0245 76.0226L76.1211 76.0226L76.1211 79.1992Z" fill="black"/>
<path d="M79.2 76.0234L76.0234 76.0234L76.0234 79.2L79.2 79.2L79.2 76.0234Z" fill="black"/>
<path d="M82.2821 76.0234L79.1055 76.0234L79.1055 79.2L82.2821 79.2L82.2821 76.0234Z" fill="black"/>
<path d="M85.3641 76.0234L82.1875 76.0234L82.1875 79.2L85.3641 79.2L85.3641 76.0234Z" fill="black"/>
<path d="M88.4461 76.0234L85.2695 76.0234L85.2695 79.2L88.4461 79.2L88.4461 76.0234Z" fill="black"/>
<path d="M91.5242 76.0234L88.3477 76.0234L88.3477 79.2L91.5242 79.2L91.5242 76.0234Z" fill="black"/>
<path d="M94.6063 76.0234L91.4297 76.0234L91.4297 79.2L94.6063 79.2L94.6063 76.0234Z" fill="black"/>
<path d="M97.6883 76.0234L94.5117 76.0234L94.5117 79.2L97.6883 79.2L97.6883 76.0234Z" fill="black"/>
<path d="M103.852 76.0234L103.852 78.12C103.852 78.7165 103.368 79.2 102.772 79.2L101.755 79.2C101.159 79.2 100.675 78.7165 100.675 78.12L100.675 76.0234L103.852 76.0234Z" fill="black"/>
<path d="M42.2235 79.1055L39.0469 79.1055L39.0469 82.2821L42.2235 82.2821L42.2235 79.1055Z" fill="black"/>
<path d="M54.5508 79.1055L54.5508 82.2821L52.4542 82.2821C51.8577 82.2821 51.3742 81.7985 51.3742 81.202L51.3742 79.1055L54.5508 79.1055Z" fill="black"/>
<path d="M54.457 82.2812L54.457 79.1047L56.5536 79.1047C57.1501 79.1047 57.6336 79.5882 57.6336 80.1847L57.6336 82.2813L54.457 82.2812Z" fill="black"/>
<path d="M60.6172 80.014L60.6172 81.3767C60.6172 81.8786 61.0238 82.2821 61.5257 82.2821L62.8885 82.2821C63.3935 82.2821 63.797 81.8755 63.797 81.3736L63.797 80.014C63.7938 79.5089 63.3872 79.1055 62.8853 79.1055L61.5257 79.1055C61.0238 79.1055 60.6172 79.5121 60.6172 80.014Z" fill="black"/>
<path d="M69.957 79.1055L69.957 82.2821L67.8605 82.2821C67.264 82.2821 66.7804 81.7985 66.7804 81.202L66.7804 79.1055L69.957 79.1055Z" fill="black"/>
<path d="M73.0399 79.1055L69.8633 79.1055L69.8633 82.2821L73.0399 82.2821L73.0399 79.1055Z" fill="black"/>
<path d="M76.118 79.1055L72.9414 79.1055L72.9414 82.2821L76.118 82.2821L76.118 79.1055Z" fill="black"/>
<path d="M79.2 79.1055L76.0234 79.1055L76.0234 82.2821L79.2 82.2821L79.2 79.1055Z" fill="black"/>
<path d="M91.5242 79.1055L88.3477 79.1055L88.3477 82.2821L91.5242 82.2821L91.5242 79.1055Z" fill="black"/>
<path d="M94.6063 79.1055L91.4297 79.1055L91.4297 82.2821L94.6063 82.2821L94.6063 79.1055Z" fill="black"/>
<path d="M97.6883 79.1055L94.5117 79.1055L94.5117 82.2821L97.6883 82.2821L97.6883 79.1055Z" fill="black"/>
<path d="M42.2266 82.1875L42.2266 84.2841C42.2266 84.8805 41.743 85.3641 41.1465 85.3641L40.13 85.3641C39.5335 85.3641 39.05 84.8805 39.05 84.2841L39.05 82.1875L42.2266 82.1875Z" fill="black"/>
<path d="M48.3906 85.3633L45.214 85.3633L45.214 83.2667C45.214 82.6702 45.6976 82.1867 46.2941 82.1867L48.3906 82.1867L48.3906 85.3633Z" fill="black"/>
<path d="M48.293 85.3633L48.293 82.1867L50.3895 82.1867C50.986 82.1867 51.4696 82.6702 51.4696 83.2667L51.4696 85.3633L48.293 85.3633Z" fill="black"/>
<path d="M57.6328 82.1875L57.6328 85.3641L55.5363 85.3641C54.9398 85.3641 54.4562 84.8805 54.4562 84.2841L54.4562 82.1875L57.6328 82.1875Z" fill="black"/>
<path d="M57.5352 85.3633L57.5352 82.1867L59.6317 82.1867C60.2282 82.1867 60.7117 82.6702 60.7117 83.2667L60.7117 85.3633L57.5352 85.3633Z" fill="black"/>
<path d="M63.6992 83.096L63.6992 84.4588C63.6992 84.9607 64.1058 85.3641 64.6077 85.3641L65.9705 85.3641C66.4756 85.3641 66.879 84.9575 66.879 84.4556L66.879 83.096C66.8758 82.5909 66.4692 82.1875 65.9673 82.1875L64.6077 82.1875C64.1058 82.1875 63.6992 82.5941 63.6992 83.096Z" fill="black"/>
<path d="M73.0391 82.1875L73.0391 85.3641L70.9425 85.3641C70.346 85.3641 69.8625 84.8805 69.8625 84.2841L69.8625 82.1875L73.0391 82.1875Z" fill="black"/>
<path d="M76.118 82.1875L72.9414 82.1875L72.9414 85.3641L76.118 85.3641L76.118 82.1875Z" fill="black"/>
<path d="M79.2 82.1875L76.0234 82.1875L76.0234 85.3641L79.2 85.3641L79.2 82.1875Z" fill="black"/>
<path d="M82.1875 83.096L82.1875 84.4588C82.1875 84.9607 82.5941 85.3641 83.096 85.3641L84.4588 85.3641C84.9638 85.3641 85.3673 84.9575 85.3673 84.4556L85.3673 83.096C85.3641 82.5909 84.9575 82.1875 84.4556 82.1875L83.096 82.1875C82.5941 82.1875 82.1875 82.5941 82.1875 83.096Z" fill="black"/>
<path d="M91.5242 82.1875L88.3477 82.1875L88.3477 85.3641L91.5242 85.3641L91.5242 82.1875Z" fill="black"/>
<path d="M97.6914 82.1875L97.6914 84.2841C97.6914 84.8805 97.2079 85.3641 96.6114 85.3641L95.5949 85.3641C94.9984 85.3641 94.5148 84.8805 94.5148 84.2841L94.5148 82.1875L97.6914 82.1875Z" fill="black"/>
<path d="M44.3359 88.3819L44.3359 88.4454L45.3048 88.4454L45.3048 87.4766L45.2413 87.4766C45.2413 87.9785 44.8347 88.3819 44.3359 88.3819Z" fill="black"/>
<path d="M48.3875 85.2695L45.2109 85.2695L45.2109 88.4461L48.3875 88.4461L48.3875 85.2695Z" fill="black"/>
<path d="M50.5 88.3819L50.5 88.4454L51.4689 88.4454L51.4689 87.4766L51.4053 87.4766C51.4053 87.9785 50.9987 88.3819 50.5 88.3819Z" fill="black"/>
<path d="M51.375 88.4414L51.375 86.3449C51.375 85.7484 51.8586 85.2648 52.455 85.2648L53.4716 85.2648C54.068 85.2648 54.5516 85.7484 54.5516 86.3449L54.5516 88.4414L51.375 88.4414Z" fill="black"/>
<path d="M60.7117 85.2695L57.5352 85.2695L57.5352 88.4461L60.7117 88.4461L60.7117 85.2695Z" fill="black"/>
<path d="M76.118 85.2695L72.9414 85.2695L72.9414 88.4461L76.118 88.4461L76.118 85.2695Z" fill="black"/>
<path d="M79.2 85.2695L76.0234 85.2695L76.0234 88.4461L79.2 88.4461L79.2 85.2695Z" fill="black"/>
<path d="M87.4766 88.3819L87.4766 88.4454L88.4454 88.4454L88.4454 87.4766L88.3819 87.4766C88.3819 87.9785 87.9753 88.3819 87.4766 88.3819Z" fill="black"/>
<path d="M91.5242 85.2695L88.3477 85.2695L88.3477 88.4461L91.5242 88.4461L91.5242 85.2695Z" fill="black"/>
<path d="M91.4297 88.4414L91.4297 85.2648L93.5262 85.2648C94.1227 85.2648 94.6063 85.7484 94.6063 86.3449L94.6063 88.4414L91.4297 88.4414Z" fill="black"/>
<path d="M97.5938 88.4414L97.5938 86.3449C97.5938 85.7484 98.0773 85.2648 98.6738 85.2648L99.6903 85.2648C100.287 85.2648 100.77 85.7484 100.77 86.3449L100.77 88.4414L97.5938 88.4414Z" fill="black"/>
<path d="M42.2266 91.5234L39.05 91.5234L39.05 89.4269C39.05 88.8304 39.5335 88.3468 40.13 88.3468L42.2266 88.3468L42.2266 91.5234Z" fill="black"/>
<path d="M45.3055 88.3477L42.1289 88.3477L42.1289 91.5242L45.3055 91.5242L45.3055 88.3477Z" fill="black"/>
<path d="M48.3875 88.3477L45.2109 88.3477L45.2109 91.5242L48.3875 91.5242L48.3875 88.3477Z" fill="black"/>
<path d="M51.4696 88.3477L48.293 88.3477L48.293 91.5242L51.4696 91.5242L51.4696 88.3477Z" fill="black"/>
<path d="M51.375 88.3477L54.5516 88.3477L54.5516 90.4442C54.5516 91.0407 54.068 91.5242 53.4716 91.5242L51.375 91.5242L51.375 88.3477Z" fill="black"/>
<path d="M60.7148 88.3477L60.7148 90.4442C60.7148 91.0407 60.2313 91.5242 59.6348 91.5242L58.6183 91.5242C58.0218 91.5242 57.5383 91.0407 57.5383 90.4442L57.5383 88.3477L60.7148 88.3477Z" fill="black"/>
<path d="M76.1211 88.3477L76.1211 91.5242L74.0245 91.5242C73.4281 91.5242 72.9445 91.0407 72.9445 90.4442L72.9445 88.3477L76.1211 88.3477Z" fill="black"/>
<path d="M79.2 88.3477L76.0234 88.3477L76.0234 91.5242L79.2 91.5242L79.2 88.3477Z" fill="black"/>
<path d="M82.2821 88.3477L79.1055 88.3477L79.1055 91.5242L82.2821 91.5242L82.2821 88.3477Z" fill="black"/>
<path d="M85.3641 88.3477L82.1875 88.3477L82.1875 91.5242L85.3641 91.5242L85.3641 88.3477Z" fill="black"/>
<path d="M88.4461 88.3477L85.2695 88.3477L85.2695 91.5242L88.4461 91.5242L88.4461 88.3477Z" fill="black"/>
<path d="M88.3477 88.3477L91.5242 88.3477L91.5242 90.4442C91.5242 91.0407 91.0407 91.5242 90.4442 91.5242L88.3477 91.5242L88.3477 88.3477Z" fill="black"/>
<path d="M100.77 88.3477L97.5938 88.3477L97.5938 91.5242L100.77 91.5242L100.77 88.3477Z" fill="black"/>
<path d="M100.676 91.5234L100.676 88.3468L102.772 88.3468C103.369 88.3468 103.852 88.8304 103.852 89.4269L103.852 91.5234L100.676 91.5234Z" fill="black"/>
<path d="M42.2266 91.4297L42.2266 93.5262C42.2266 94.1227 41.743 94.6063 41.1465 94.6063L40.13 94.6063C39.5335 94.6063 39.05 94.1227 39.05 93.5262L39.05 91.4297L42.2266 91.4297Z" fill="black"/>
<path d="M48.3906 91.4297L48.3906 94.6063L46.2941 94.6063C45.6976 94.6063 45.214 94.1227 45.214 93.5262L45.214 91.4297L48.3906 91.4297Z" fill="black"/>
<path d="M51.4696 91.4297L48.293 91.4297L48.293 94.6063L51.4696 94.6063L51.4696 91.4297Z" fill="black"/>
<path d="M54.457 92.3382L54.457 93.701C54.457 94.2029 54.8636 94.6063 55.3655 94.6063L56.7283 94.6063C57.2334 94.6063 57.6368 94.1997 57.6368 93.6978L57.6368 92.3382C57.6336 91.8331 57.227 91.4297 56.7251 91.4297L55.3655 91.4297C54.8636 91.4297 54.457 91.8363 54.457 92.3382Z" fill="black"/>
<path d="M63.6992 94.6055L63.6992 92.5089C63.6992 91.9124 64.1828 91.4289 64.7793 91.4289L65.7958 91.4289C66.3923 91.4289 66.8758 91.9124 66.8758 92.5089L66.8758 94.6055L63.6992 94.6055Z" fill="black"/>
<path d="M88.4461 91.4297L85.2695 91.4297L85.2695 94.6063L88.4461 94.6063L88.4461 91.4297Z" fill="black"/>
<path d="M91.4297 92.3382L91.4297 93.701C91.4297 94.2029 91.8363 94.6063 92.3382 94.6063L93.701 94.6063C94.206 94.6063 94.6095 94.1997 94.6095 93.6978L94.6095 92.3382C94.6063 91.8331 94.1997 91.4297 93.6978 91.4297L92.3382 91.4297C91.8363 91.4297 91.4297 91.8363 91.4297 92.3382Z" fill="black"/>
<path d="M100.77 91.4297L97.5938 91.4297L97.5938 94.6063L100.77 94.6063L100.77 91.4297Z" fill="black"/>
<path d="M42.1289 97.6875L42.1289 95.5909C42.1289 94.9945 42.6125 94.5109 43.2089 94.5109L44.2255 94.5109C44.8219 94.5109 45.3055 94.9945 45.3055 95.5909L45.3055 97.6875L42.1289 97.6875Z" fill="black"/>
<path d="M51.4727 94.5117L51.4727 97.6883L49.3761 97.6883C48.7796 97.6883 48.2961 97.2048 48.2961 96.6083L48.2961 94.5117L51.4727 94.5117Z" fill="black"/>
<path d="M51.375 97.6875L51.375 94.5109L53.4716 94.5109C54.068 94.5109 54.5516 94.9945 54.5516 95.5909L54.5516 97.6875L51.375 97.6875Z" fill="black"/>
<path d="M57.5352 95.4202L57.5352 96.783C57.5352 97.2849 57.9418 97.6883 58.4437 97.6883L59.8064 97.6883C60.3115 97.6883 60.7149 97.2817 60.7149 96.7798L60.7149 95.4202C60.7117 94.9151 60.3051 94.5117 59.8032 94.5117L58.4437 94.5117C57.9418 94.5117 57.5352 94.9183 57.5352 95.4202Z" fill="black"/>
<path d="M66.8789 94.5117L66.8789 97.6883L64.7824 97.6883C64.1859 97.6883 63.7023 97.2048 63.7023 96.6083L63.7023 94.5117L66.8789 94.5117Z" fill="black"/>
<path d="M69.9578 94.5117L66.7813 94.5117L66.7813 97.6883L69.9578 97.6883L69.9578 94.5117Z" fill="black"/>
<path d="M69.8633 97.6875L69.8633 94.5109L71.9598 94.5109C72.5563 94.5109 73.0399 94.9945 73.0399 95.5909L73.0399 97.6875L69.8633 97.6875Z" fill="black"/>
<path d="M79.2031 97.6875L77.1066 97.6875C76.5101 97.6875 76.0265 97.2039 76.0265 96.6075L76.0265 95.5909C76.0265 94.9945 76.5101 94.5109 77.1066 94.5109L79.2031 94.5109L79.2031 97.6875Z" fill="black"/>
<path d="M79.1055 97.6875L79.1055 94.5109L81.202 94.5109C81.7985 94.5109 82.2821 94.9945 82.2821 95.5909L82.2821 97.6875L79.1055 97.6875Z" fill="black"/>
<path d="M88.4453 94.5117L88.4453 97.6883L86.3488 97.6883C85.7523 97.6883 85.2687 97.2048 85.2687 96.6083L85.2687 94.5117L88.4453 94.5117Z" fill="black"/>
<path d="M88.3477 97.6875L88.3477 94.5109L90.4442 94.5109C91.0407 94.5109 91.5242 94.9945 91.5242 95.5909L91.5242 97.6875L88.3477 97.6875Z" fill="black"/>
<path d="M100.773 94.5117L100.773 97.6883L98.6769 97.6883C98.0804 97.6883 97.5968 97.2048 97.5968 96.6083L97.5968 94.5117L100.773 94.5117Z" fill="black"/>
<path d="M100.676 97.6875L100.676 94.5109L102.772 94.5109C103.369 94.5109 103.852 94.9945 103.852 95.5909L103.852 97.6875L100.676 97.6875Z" fill="black"/>
<path d="M45.3086 97.5938L45.3086 100.77L43.212 100.77C42.6156 100.77 42.132 100.287 42.132 99.6903L42.132 97.5937L45.3086 97.5938Z" fill="black"/>
<path d="M45.2109 100.77L45.2109 97.5929L47.3075 97.5929C47.904 97.5929 48.3875 98.0765 48.3875 98.673L48.3875 100.77L45.2109 100.77Z" fill="black"/>
<path d="M73.0391 97.5938L73.0391 100.77L70.9425 100.77C70.346 100.77 69.8625 100.287 69.8625 99.6903L69.8625 97.5937L73.0391 97.5938Z" fill="black"/>
<path d="M72.9414 100.77L72.9414 97.5929L75.038 97.5929C75.6344 97.5929 76.118 98.0765 76.118 98.673L76.118 100.77L72.9414 100.77Z" fill="black"/>
<path d="M91.5242 97.5938L88.3477 97.5938L88.3477 100.77L91.5242 100.77L91.5242 97.5938Z" fill="black"/>
<path d="M94.6063 97.5938L91.4297 97.5938L91.4297 100.77L94.6063 100.77L94.6063 97.5938Z" fill="black"/>
<path d="M94.5117 100.77L94.5117 97.5929L96.6083 97.5929C97.2048 97.5929 97.6883 98.0765 97.6883 98.673L97.6883 100.77L94.5117 100.77Z" fill="black"/>
<path d="M103.852 97.5938L103.852 99.6903C103.852 100.287 103.368 100.77 102.772 100.77L101.755 100.77C101.159 100.77 100.675 100.287 100.675 99.6903L100.675 97.5937L103.852 97.5938Z" fill="black"/>
<path d="M54.5508 103.852L52.4542 103.852C51.8577 103.852 51.3742 103.368 51.3742 102.772L51.3742 101.755C51.3742 101.159 51.8577 100.675 52.4542 100.675L54.5508 100.675L54.5508 103.852Z" fill="black"/>
<path d="M54.457 103.852L54.457 100.675L56.5536 100.675C57.1501 100.675 57.6336 101.159 57.6336 101.755L57.6336 103.852L54.457 103.852Z" fill="black"/>
<path d="M66.8789 103.852L64.7824 103.852C64.1859 103.852 63.7023 103.368 63.7023 102.772L63.7023 101.755C63.7023 101.159 64.1859 100.675 64.7824 100.675L66.8789 100.675L66.8789 103.852Z" fill="black"/>
<path d="M66.7813 103.852L66.7813 100.675L68.8778 100.675C69.4743 100.675 69.9578 101.159 69.9578 101.755L69.9578 103.852L66.7813 103.852Z" fill="black"/>
<path d="M79.2031 103.852L77.1066 103.852C76.5101 103.852 76.0265 103.368 76.0265 102.772L76.0265 101.755C76.0265 101.159 76.5101 100.675 77.1066 100.675L79.2031 100.675L79.2031 103.852Z" fill="black"/>
<path d="M79.1055 103.852L79.1055 100.675L81.202 100.675C81.7985 100.675 82.2821 101.159 82.2821 101.755L82.2821 103.852L79.1055 103.852Z" fill="black"/>
<path d="M88.4453 103.852L86.3488 103.852C85.7523 103.852 85.2687 103.368 85.2687 102.772L85.2687 101.755C85.2687 101.159 85.7523 100.675 86.3488 100.675L88.4453 100.675L88.4453 103.852Z" fill="black"/>
<path d="M91.5242 100.676L88.3477 100.676L88.3477 103.852L91.5242 103.852L91.5242 100.676Z" fill="black"/>
<path d="M91.4297 100.676L94.6063 100.676L94.6063 102.772C94.6063 103.369 94.1227 103.852 93.5262 103.852L91.4297 103.852L91.4297 100.676Z" fill="black"/>
<path fill-rule="evenodd" clip-rule="evenodd" d="M33.4581 28.9259L33.4581 22.1067C33.4581 19.0799 33.0463 18.3413 32.8692 18.1638C32.6917 17.9867 31.9532 17.575 28.9259 17.575L22.1071 17.575C19.0799 17.575 18.3413 17.9867 18.1642 18.1638C17.9871 18.3413 17.575 19.0799 17.575 22.1067L17.575 28.9259C17.575 31.9532 17.9871 32.6917 18.1642 32.8692C18.3413 33.0459 19.0799 33.4581 22.1071 33.4581L28.9259 33.4581C31.9532 33.4581 32.6917 33.0459 32.8692 32.8692C33.0463 32.6917 33.4581 31.9532 33.4581 28.9259ZM28.9259 14.3984C35.1523 14.3984 36.6346 15.8807 36.6346 22.1067C36.6346 28.3331 36.6346 22.6999 36.6346 28.9259C36.6346 35.1523 35.1523 36.6346 28.9259 36.6346C22.6999 36.6346 28.3331 36.6346 22.1071 36.6346C15.8807 36.6346 14.3984 35.1523 14.3984 28.9259C14.3984 22.6999 14.3984 25.5838 14.3984 22.1067C14.3984 15.8807 15.8807 14.3984 22.1071 14.3984C28.3331 14.3984 22.6999 14.3984 28.9259 14.3984ZM26.9776 20.7516C29.6462 20.7516 30.2814 21.3872 30.2814 24.055C30.2814 26.7236 30.2814 24.3095 30.2814 26.9776C30.2814 29.6458 29.6462 30.2814 26.9776 30.2814C24.3095 30.2814 26.7236 30.2814 24.0554 30.2814C21.3872 30.2814 20.7516 29.6458 20.7516 26.9776C20.7516 24.3095 20.7516 25.5453 20.7516 24.055C20.7516 21.3872 21.3872 20.7516 24.0554 20.7516C26.7236 20.7516 24.3095 20.7516 26.9776 20.7516Z" fill="black"/>
<path fill-rule="evenodd" clip-rule="evenodd" d="M100.548 28.9259L100.548 22.1067C100.548 19.0799 100.136 18.3413 99.959 18.1638C99.7816 17.9867 99.043 17.575 96.0158 17.575L89.1969 17.575C86.1697 17.575 85.4312 17.9867 85.2541 18.1638C85.077 18.3413 84.6648 19.0799 84.6648 22.1067L84.6648 28.9259C84.6648 31.9532 85.077 32.6917 85.2541 32.8692C85.4312 33.0459 86.1697 33.4581 89.1969 33.4581L96.0158 33.4581C99.043 33.4581 99.7816 33.0459 99.959 32.8692C100.136 32.6917 100.548 31.9532 100.548 28.9259ZM96.0158 14.3984C102.242 14.3984 103.724 15.8807 103.724 22.1067C103.724 28.3331 103.724 22.6999 103.724 28.9259C103.724 35.1523 102.242 36.6346 96.0158 36.6346C89.7898 36.6346 95.423 36.6346 89.1969 36.6346C82.9705 36.6346 81.4883 35.1523 81.4883 28.9259C81.4883 22.6999 81.4883 25.5838 81.4883 22.1067C81.4883 15.8807 82.9705 14.3984 89.1969 14.3984C95.423 14.3984 89.7898 14.3984 96.0158 14.3984ZM94.0675 20.7516C96.7361 20.7516 97.3712 21.3872 97.3712 24.055C97.3712 26.7236 97.3712 24.3095 97.3712 26.9776C97.3712 29.6458 96.7361 30.2814 94.0675 30.2814C91.3993 30.2814 93.8134 30.2814 91.1452 30.2814C88.4771 30.2814 87.8415 29.6458 87.8415 26.9776C87.8415 24.3095 87.8415 25.5453 87.8415 24.055C87.8415 21.3872 88.4771 20.7516 91.1452 20.7516C93.8134 20.7516 91.3993 20.7516 94.0675 20.7516Z" fill="black"/>
<path fill-rule="evenodd" clip-rule="evenodd" d="M33.4581 96.0158L33.4581 89.1965C33.4581 86.1697 33.0463 85.4312 32.8692 85.2537C32.6917 85.0766 31.9532 84.6648 28.9259 84.6648L22.1071 84.6648C19.0799 84.6648 18.3413 85.0766 18.1642 85.2537C17.9871 85.4312 17.575 86.1697 17.575 89.1965L17.575 96.0158C17.575 99.043 17.9871 99.7816 18.1642 99.959C18.3413 100.136 19.0799 100.548 22.1071 100.548L28.9259 100.548C31.9532 100.548 32.6917 100.136 32.8692 99.959C33.0463 99.7816 33.4581 99.043 33.4581 96.0158ZM28.9259 81.4883C35.1523 81.4883 36.6346 82.9705 36.6346 89.1965C36.6346 95.423 36.6346 89.7898 36.6346 96.0158C36.6346 102.242 35.1523 103.724 28.9259 103.724C22.6999 103.724 28.3331 103.724 22.1071 103.724C15.8807 103.724 14.3984 102.242 14.3984 96.0158C14.3984 89.7898 14.3984 92.6737 14.3984 89.1965C14.3984 82.9705 15.8807 81.4883 22.1071 81.4883C28.3331 81.4883 22.6999 81.4883 28.9259 81.4883ZM26.9776 87.8415C29.6462 87.8415 30.2814 88.4771 30.2814 91.1448C30.2814 93.8134 30.2814 91.3993 30.2814 94.0675C30.2814 96.7357 29.6462 97.3712 26.9776 97.3712C24.3095 97.3712 26.7236 97.3712 24.0554 97.3712C21.3872 97.3712 20.7516 96.7357 20.7516 94.0675C20.7516 91.3993 20.7516 92.6351 20.7516 91.1448C20.7516 88.4771 21.3872 87.8415 24.0554 87.8415C26.7236 87.8415 24.3095 87.8415 26.9776 87.8415Z" fill="black"/>
</g>
</g>
</g>
<defs>
<clipPath id="clip0_1201_1925">
<rect x="2.09548e-09" width="120" height="120" rx="30" fill="white"/>
</clipPath>
<clipPath id="clip1_1201_1925">
<rect width="91.2" height="91.2" fill="white" transform="translate(14.3984 14.3984)"/>
</clipPath>
</defs>
</svg>
