<svg width="59" height="59" viewBox="0 0 59 59" fill="none" xmlns="http://www.w3.org/2000/svg">
<ellipse cx="28.9018" cy="29.1672" rx="27.4998" ry="27.5" transform="rotate(3 28.9018 29.1672)" fill="#F67C36"/>
<rect x="16.0742" y="15.9766" width="27.8877" height="3.99883" rx="1.99941" transform="rotate(2.98321 16.0742 15.9766)" fill="#FCF8F2"/>
<rect x="15.5039" y="26.9609" width="27.8877" height="3.99883" rx="1.99941" transform="rotate(2.98321 15.5039 26.9609)" fill="#FCF8F2"/>
<rect x="14.9297" y="37.9414" width="27.8877" height="3.99883" rx="1.99941" transform="rotate(2.98321 14.9297 37.9414)" fill="#FCF8F2"/>
<ellipse cx="29.269" cy="28.9015" rx="27.4998" ry="27.5" transform="rotate(3 29.269 28.9015)" fill="#F67C36"/>
<rect x="16.4414" y="15.7109" width="27.8877" height="3.99883" rx="1.99941" transform="rotate(2.98321 16.4414 15.7109)" fill="#FCF8F2"/>
<rect x="15.8711" y="26.6953" width="27.8877" height="3.99883" rx="1.99941" transform="rotate(2.98321 15.8711 26.6953)" fill="#FCF8F2"/>
<rect x="15.2969" y="37.6758" width="27.8877" height="3.99883" rx="1.99941" transform="rotate(2.98321 15.2969 37.6758)" fill="#FCF8F2"/>
</svg>
